<?xml version="1.0" encoding="utf-8"?>
<!-- Generator: Adobe Illustrator 24.1.0, SVG Export Plug-In . SVG Version: 6.00 Build 0)  -->
<svg version="1.1" id="Layer_1" xmlns="http://www.w3.org/2000/svg" xmlns:xlink="http://www.w3.org/1999/xlink" x="0px" y="0px"
	 viewBox="0 0 700 631.2" style="enable-background:new 0 0 700 631.2;" xml:space="preserve">
<style type="text/css">
	.st0{opacity:0.5;fill-rule:evenodd;clip-rule:evenodd;fill:url(#SVGID_1_);}
	.st1{fill-rule:evenodd;clip-rule:evenodd;fill:#BCE3F8;}
	.st2{fill-rule:evenodd;clip-rule:evenodd;fill:url(#SVGID_2_);}
	.st3{fill-rule:evenodd;clip-rule:evenodd;fill:#0B436A;}
	.st4{fill-rule:evenodd;clip-rule:evenodd;fill:#071A3B;}
	.st5{fill-rule:evenodd;clip-rule:evenodd;fill:#105B90;}
	.st6{fill-rule:evenodd;clip-rule:evenodd;fill:#0A668C;}
	.st7{fill-rule:evenodd;clip-rule:evenodd;fill:url(#SVGID_3_);}
	.st8{opacity:0.5;fill-rule:evenodd;clip-rule:evenodd;fill:url(#SVGID_4_);}
	.st9{opacity:0.5;fill-rule:evenodd;clip-rule:evenodd;fill:url(#SVGID_5_);}
	.st10{fill-rule:evenodd;clip-rule:evenodd;fill:url(#SVGID_6_);}
	.st11{opacity:0.5;fill-rule:evenodd;clip-rule:evenodd;fill:url(#SVGID_7_);}
	.st12{opacity:0.5;fill-rule:evenodd;clip-rule:evenodd;fill:url(#SVGID_8_);}
	.st13{fill-rule:evenodd;clip-rule:evenodd;fill:url(#SVGID_9_);}
	.st14{opacity:0.5;fill-rule:evenodd;clip-rule:evenodd;fill:url(#SVGID_10_);}
	.st15{opacity:0.5;fill-rule:evenodd;clip-rule:evenodd;fill:url(#SVGID_11_);}
	.st16{fill-rule:evenodd;clip-rule:evenodd;fill:url(#SVGID_12_);}
	.st17{opacity:0.5;fill-rule:evenodd;clip-rule:evenodd;fill:url(#SVGID_13_);}
	.st18{opacity:0.5;fill-rule:evenodd;clip-rule:evenodd;fill:url(#SVGID_14_);}
	.st19{fill-rule:evenodd;clip-rule:evenodd;fill:url(#SVGID_15_);}
	.st20{opacity:0.5;fill-rule:evenodd;clip-rule:evenodd;fill:url(#SVGID_16_);}
	.st21{fill-rule:evenodd;clip-rule:evenodd;fill:#0A3C5F;}
	.st22{fill-rule:evenodd;clip-rule:evenodd;fill:url(#SVGID_17_);}
	.st23{fill-rule:evenodd;clip-rule:evenodd;fill:#FFFFFF;}
	.st24{opacity:0.5;fill-rule:evenodd;clip-rule:evenodd;fill:#1B83CE;}
	.st25{fill-rule:evenodd;clip-rule:evenodd;fill:#CE2D43;}
	.st26{fill-rule:evenodd;clip-rule:evenodd;fill:#E64056;}
	.st27{opacity:0.85;fill-rule:evenodd;clip-rule:evenodd;fill:#FFFFFF;}
	.st28{fill-rule:evenodd;clip-rule:evenodd;fill:#187ABF;}
	.st29{opacity:0.5;fill-rule:evenodd;clip-rule:evenodd;fill:url(#SVGID_18_);}
	.st30{fill-rule:evenodd;clip-rule:evenodd;fill:url(#SVGID_19_);}
	.st31{fill-rule:evenodd;clip-rule:evenodd;fill:url(#SVGID_20_);}
	.st32{opacity:0.5;fill-rule:evenodd;clip-rule:evenodd;fill:url(#SVGID_21_);}
	.st33{fill-rule:evenodd;clip-rule:evenodd;fill:url(#SVGID_22_);}
	.st34{fill-rule:evenodd;clip-rule:evenodd;fill:#CDDFF2;}
	.st35{fill-rule:evenodd;clip-rule:evenodd;fill:#31ACCB;}
	.st36{fill-rule:evenodd;clip-rule:evenodd;fill:#0F578A;}
	.st37{fill-rule:evenodd;clip-rule:evenodd;fill:#A5C0DD;}
	.st38{fill-rule:evenodd;clip-rule:evenodd;fill:#F0B186;}
	.st39{fill-rule:evenodd;clip-rule:evenodd;fill:url(#SVGID_23_);}
	.st40{fill-rule:evenodd;clip-rule:evenodd;fill:url(#SVGID_24_);}
	.st41{opacity:0.35;fill-rule:evenodd;clip-rule:evenodd;fill:#BDD1E7;}
	.st42{fill-rule:evenodd;clip-rule:evenodd;fill:#04304F;}
	.st43{fill-rule:evenodd;clip-rule:evenodd;fill:url(#SVGID_25_);}
	.st44{opacity:0.3;fill-rule:evenodd;clip-rule:evenodd;fill:#04304F;}
	.st45{fill-rule:evenodd;clip-rule:evenodd;fill:url(#SVGID_26_);}
	.st46{fill-rule:evenodd;clip-rule:evenodd;fill:url(#SVGID_27_);}
	.st47{opacity:0.3;fill-rule:evenodd;clip-rule:evenodd;fill:#1466A0;}
	.st48{fill-rule:evenodd;clip-rule:evenodd;fill:url(#SVGID_28_);}
	.st49{fill-rule:evenodd;clip-rule:evenodd;fill:url(#SVGID_29_);}
	.st50{fill-rule:evenodd;clip-rule:evenodd;fill:#E7A376;}
	.st51{fill-rule:evenodd;clip-rule:evenodd;fill:#2FAAC8;}
	.st52{fill-rule:evenodd;clip-rule:evenodd;fill:url(#SVGID_30_);}
	.st53{fill-rule:evenodd;clip-rule:evenodd;fill:url(#SVGID_31_);}
	.st54{fill-rule:evenodd;clip-rule:evenodd;fill:#AA6F48;}
	.st55{fill-rule:evenodd;clip-rule:evenodd;fill:#EA9F6F;}
	.st56{fill-rule:evenodd;clip-rule:evenodd;fill:url(#SVGID_32_);}
	.st57{fill-rule:evenodd;clip-rule:evenodd;fill:url(#SVGID_33_);}
	.st58{fill-rule:evenodd;clip-rule:evenodd;fill:url(#SVGID_34_);}
	.st59{fill-rule:evenodd;clip-rule:evenodd;fill:#1F202B;}
	.st60{fill-rule:evenodd;clip-rule:evenodd;fill:#161A40;}
	.st61{fill-rule:evenodd;clip-rule:evenodd;fill:#052F4D;}
	.st62{fill-rule:evenodd;clip-rule:evenodd;fill:url(#SVGID_35_);}
	.st63{fill-rule:evenodd;clip-rule:evenodd;fill:url(#SVGID_36_);}
	.st64{fill-rule:evenodd;clip-rule:evenodd;fill:url(#SVGID_37_);}
	.st65{fill-rule:evenodd;clip-rule:evenodd;fill:url(#SVGID_38_);}
	.st66{opacity:0.3;fill-rule:evenodd;clip-rule:evenodd;fill:url(#SVGID_39_);}
	.st67{fill-rule:evenodd;clip-rule:evenodd;fill:#3CCBEF;}
	.st68{fill-rule:evenodd;clip-rule:evenodd;fill:#48202D;}
</style>
<g>
	<linearGradient id="SVGID_1_" gradientUnits="userSpaceOnUse" x1="293.299" y1="189.6195" x2="428.8966" y2="499.872">
		<stop  offset="0" style="stop-color:#D2EEFC"/>
		<stop  offset="1" style="stop-color:#C3E6F7"/>
	</linearGradient>
	<ellipse class="st0" cx="343.1" cy="303.5" rx="271.5" ry="272.5"/>
	<g>
		<g>
			<g>
				<g>
					<ellipse class="st1" cx="185.1" cy="447.6" rx="27.8" ry="16.1"/>
					<g>
						<linearGradient id="SVGID_2_" gradientUnits="userSpaceOnUse" x1="168.8176" y1="417.4791" x2="201.6241" y2="423.235">
							<stop  offset="0" style="stop-color:#105B91"/>
							<stop  offset="1" style="stop-color:#0A3C5F"/>
						</linearGradient>
						<path class="st2" d="M217.6,394.6c-1.4,0-59-0.2-64.2-0.2c0,1.2,0.2,2.5,0.3,3.6c0.5,5.3,1.2,10.7,2.5,15.8c0,0,0,0.1,0,0.1
							c2.4,10.2,6.6,19.9,13.3,28c1.7,2.1,5.3,6.1,7.7,7.5c4.4,2.6,11.6,2.7,16.1,0.2c0.6-0.3,1.1-0.7,1.5-1.1c3.4-3,6.5-6.3,9.1-10
							c5.4-7.5,8.9-16.2,11-25.2C216.3,407.2,217,400.9,217.6,394.6z"/>
						<path class="st3" d="M185.4,376.4c17,0,30.8,7.8,30.8,17.4c0,9.6-13.8,17.4-30.8,17.4c-17,0-30.8-7.8-30.8-17.4
							C154.6,384.2,168.4,376.4,185.4,376.4z"/>
						<path class="st4" d="M185.4,381.1c16.5,0,29.9,7.6,29.9,16.9c0,4.5-10.8,12.5-30,13.4c-19.2,0.9-29.2-9.4-29.8-13.4
							C155.5,388.7,168.9,381.1,185.4,381.1z"/>
						<path class="st5" d="M185.4,375.6c17.8,0,32.1,8.3,32.1,18.6c0,10.3-14.4,18.6-32.1,18.6c-17.8,0-32.1-8.3-32.1-18.6
							C153.3,383.9,167.7,375.6,185.4,375.6L185.4,375.6z M185.4,376.9c-16.5,0-29.9,7.6-29.9,16.9c0,9.3,13.4,16.9,29.9,16.9
							c16.5,0,29.9-7.6,29.9-16.9C215.3,384.5,201.9,376.9,185.4,376.9z"/>
						<path class="st5" d="M216.9,398c-3,8.5-16,14.8-31.5,14.8c-15.1,0-27.8-6-31.2-14.2l0-0.1l0.6-0.1l1.8-0.3l0.1,0
							c3.5,7.1,15.1,12.4,28.8,12.4c14.1,0,25.9-5.5,29.1-12.9l1.7,0.1L216.9,398L216.9,398z M154.1,398.4l0.5-0.3L154.1,398.4
							L154.1,398.4z"/>
					</g>
				</g>
				<path class="st6" d="M180.8,399.3c3.9-58.4-8-95.5-18.6-121.8c-9.8-24.3-15.2-56.7-9.7-93.7c0.9,25.8-1.8,46.1,16.3,91.1
					c10.9,27,23,64.8,19.1,124.7C187.7,403.2,180.6,402.5,180.8,399.3z"/>
			</g>
			<g>
				<g>
					<g>
						<linearGradient id="SVGID_3_" gradientUnits="userSpaceOnUse" x1="176.9813" y1="377.8231" x2="169.2641" y2="305.1189">
							<stop  offset="0" style="stop-color:#31ADCC"/>
							<stop  offset="0.9951" style="stop-color:#198AA6"/>
						</linearGradient>
						<path class="st7" d="M173,307.7c6.7-5.8,14.9-6,22.1-3.5c2.6,0.9,5.3,2.1,6.1,4.9c0.6,1.9-0.5,2.7-1.2,2.9
							c-1.7,0.5-2.7-3-6-3.1c-4-0.2-2.3,2.7,0.2,3.9c1.6,0.8,5.8,0.8,9.7,1.5c6.5,1.1,9.6,5.2,10.9,11.5c0.3,1.3,0.5,2.6,0.7,3.9
							c-3.1-3.9-9.4-11.6-24.2-13c-3.2-0.3-3.6,0.7-0.2,1.6c11.3,3.1,18.1,6,22.1,10.4c2.7,2.9,3.2,5.2,3.2,9.2c0,3.9-0.3,8-1,12.1
							c-2.5-12.7-11.7-23-25.4-24.6c-5.6-0.6-6.6,2.1-3.8,2.9c6.2,2,22.3,6.8,25.4,23.1c1.2,6.7-3.3,18.5-7.4,23.8
							c-0.5-8-3.6-15.2-7.8-22.8c-2.3-4.3-5.2-9.2-9.2-12.7c-3.4-3-5.5-2.6-5.7,0c-0.1,2.4,6.7,9.3,10.3,13.6
							c3.9,4.7,7.1,10.8,8.6,16.9c1.3,5.2,1.7,8.4-2.2,11.9c-3,2.7-6.3,4.9-10.2,6.6c2.9-8.3,2.7-13.2-1.6-22.1
							c-1.4-2.8-3.1-5.2-4.9-5.5c-2.2-0.3-2,3.5,0,7.3c2.7,5.3,6.3,10.8,5.1,16.3c-1.6,7.4-9.4,6.1-15.7,8.7
							c-6.8-4.4-19.2-3-18.2-13.2c0.6-6.2,5.4-11.7,11.2-17.9c3.7-3.9,7.5-9.3,5.3-10.6c-2.6-1.5-22.9,11.3-22.2,28.9
							c-1.3-1.3-2.5-2.7-3.7-4.2c-3.2-4.2-2.3-7.7-0.6-13c2.9-8.9,10.2-16.6,22-23.4c4.2-2.4,7.2-5,6-7.3c-0.9-1.6-5-2.4-9.9-0.1
							c-16.8,7.8-22.7,21.3-22.2,36.7c-2.1-3.7-3.8-7.6-5.2-11.6c-6.6-19.1,5.2-30,23.1-35.4c4.2-1.3,6.2-1.3,6.7-2
							c1-1.3-2.9-2.6-7.7-1.7c-15.6,3.2-21.3,11-25.9,23.1c-0.4-2.8-0.6-5.6-0.7-8.3c-0.2-5.4,0.6-8.6,5.1-12.4
							c8.8-7.4,15-8.4,22.6-10c4.4-0.9,1.5-2.1-1.4-1.9c-3.1,0.3-9.8,2.4-13.9,4.5c-5.6,2.9-9.1,5.9-11.9,9
							c1.2-8.5,8.1-12.7,16-15.2c2.2-0.7,4-1.1,5.8-2.2c1.8-1.1,3.3-3.5-0.8-3c-3.1,0.3-6.2,2.4-7.7,5.1c-0.8,0.1-1.7-0.4-2.1-1.3
							c-1.5-3.5,7.4-6.3,9.9-6.8C156.3,298,166.1,298.1,173,307.7L173,307.7z M169.1,309.9c-1.9-2.4-4.5-3.5-5.7-2.5
							c-1.3,1-0.7,3.7,1.2,6.1c1.9,2.4,4.5,3.5,5.7,2.5C171.5,315.1,171,312.3,169.1,309.9z"/>
						<linearGradient id="SVGID_4_" gradientUnits="userSpaceOnUse" x1="175.4667" y1="327.7119" x2="164.9668" y2="374.5064">
							<stop  offset="0" style="stop-color:#31ADCC"/>
							<stop  offset="0.9951" style="stop-color:#198AA6"/>
						</linearGradient>
						<path class="st8" d="M175.1,306.1c2.6,18.8,2.1,60.6-3.5,78.6c2.6-29,2.8-49-0.4-78.3c0-0.3,0-0.5,0-0.8
							c0.6,0.6,1.1,1.3,1.7,2.1C173.7,307.1,174.4,306.5,175.1,306.1L175.1,306.1z"/>
					</g>
					<linearGradient id="SVGID_5_" gradientUnits="userSpaceOnUse" x1="176.7123" y1="375.2876" x2="169.2383" y2="304.8748">
						<stop  offset="0" style="stop-color:#31ADCC"/>
						<stop  offset="0.9951" style="stop-color:#198AA6"/>
					</linearGradient>
					<path class="st9" d="M173,307.7c6.7-5.8,14.9-6,22.1-3.5c2.6,0.9,5.3,2.1,6.1,4.9c0.6,1.9-0.5,2.7-1.2,2.9
						c-1.7,0.5-2.7-3-6-3.1c-4-0.2-2.3,2.7,0.2,3.9c1.6,0.8,5.8,0.8,9.7,1.5c6.5,1.1,9.6,5.2,10.9,11.5c0.3,1.3,0.5,2.6,0.7,3.9
						c-3.1-3.9-9.4-11.6-24.2-13c-3.2-0.3-3.6,0.7-0.2,1.6c11.3,3.1,18.1,6,22.1,10.4c2.7,2.9,3.2,5.2,3.2,9.2c0,3.9-0.3,8-1,12.1
						c-2.5-12.7-11.7-23-25.4-24.6c-5.6-0.6-6.6,2.1-3.8,2.9c6.2,2,22.3,6.8,25.4,23.1c0.3,1.8,0.2,4-0.2,6.4
						c-6.5-10.1-22.1-20.5-36.9-26.8c-1.2,1.1-2.4,2.3-3.6,3.4c0.2-0.6,0.1-1.2-0.2-1.7c-0.9-1.6-5-2.4-9.9-0.1
						c-13.3,6.2-19.8,15.9-21.6,27.3c-1.3,0.7-2.7,1.4-4.1,2.1c-0.6-1.4-1.1-2.8-1.6-4.3c-6.6-19.1,5.2-30,23.1-35.4
						c4.2-1.3,6.2-1.3,6.7-2c1-1.3-2.9-2.6-7.7-1.7c-15.6,3.2-21.3,11-25.9,23.1c-0.4-2.8-0.6-5.6-0.7-8.3
						c-0.2-5.4,0.6-8.6,5.1-12.4c8.8-7.4,15-8.4,22.6-10c4.4-0.9,1.5-2.1-1.4-1.9c-3.1,0.3-9.8,2.4-13.9,4.5
						c-5.6,2.9-9.1,5.9-11.9,9c1.2-8.5,8.1-12.7,16-15.2c2.2-0.7,4-1.1,5.8-2.2c1.8-1.1,3.3-3.5-0.8-3c-3.1,0.3-6.2,2.4-7.7,5.1
						c-0.8,0.1-1.7-0.4-2.1-1.3c-1.5-3.5,7.4-6.3,9.9-6.8C156.3,298,166.1,298.1,173,307.7L173,307.7z M146.8,355.1
						c6.7-4.6,12.7-10,18.6-15.5c-0.3,0.2-0.5,0.3-0.8,0.5C156.6,344.6,150.7,349.6,146.8,355.1L146.8,355.1z M169.1,309.9
						c-1.9-2.4-4.5-3.5-5.7-2.5c-1.3,1-0.7,3.7,1.2,6.1c1.9,2.4,4.5,3.5,5.7,2.5C171.5,315.1,171,312.3,169.1,309.9z"/>
				</g>
				<g>
					<g>
						<linearGradient id="SVGID_6_" gradientUnits="userSpaceOnUse" x1="77.8138" y1="323.2924" x2="134.8234" y2="287.0642">
							<stop  offset="0" style="stop-color:#31ADCC"/>
							<stop  offset="0.9951" style="stop-color:#198AA6"/>
						</linearGradient>
						<path class="st10" d="M141.7,278c0.4-10.3-5.3-17.9-12.8-22.7c-2.7-1.7-5.7-3.3-8.9-2c-2.1,0.8-2.1,2.4-1.8,3.2
							c0.7,1.9,4.7,0.3,7.2,3.1c3.1,3.5-0.7,4-3.7,2.6c-1.8-0.9-4.9-4.7-8.3-7.7c-5.7-5.1-11.7-4.9-18.3-1.6c-1.3,0.7-2.7,1.4-4,2.2
							c5.8,0,17.3,0.1,29.3,12.7c2.6,2.7,1.9,3.8-1.3,1.4c-11-8.1-18.5-12.1-25.4-12.6c-4.6-0.3-7.1,0.9-10.7,3.7
							c-3.6,2.8-7,6.1-10.2,9.7c13.4-6.9,29.4-6,40.7,5.3c4.6,4.6,2.9,7.5,0.1,5.6c-6.3-4.2-22.3-15.4-39.4-6.3
							c-6.9,3.7-14.4,16.4-16.3,23.9c7.7-5.4,16.4-7.7,26.4-9.4c5.6-1,12.1-1.9,18.2-0.8c5.2,0.9,6.4,3.2,4.1,5.2
							c-2.1,1.8-13.3,0.6-19.8,0.5c-7.1-0.1-15,1.4-21.6,4.4c-5.7,2.6-8.9,4.5-9.3,10.6c-0.3,4.7,0.1,9.3,1.4,14
							c5.4-8.7,10-12,21.3-14.5c3.6-0.8,7-1,8.5,0.5c1.9,1.8-1.7,4.3-6.6,5.4c-6.8,1.4-14.4,2.1-18.5,7.1c-5.6,6.7,1.3,13,3.4,20.6
							c9,3,16.5,15.3,25.1,7c5.2-5,6.8-13.3,8.2-23.1c0.9-6.2,3-13.6,5.8-12.5c3.3,1.2,6.2,29-10.2,41c2.1,0.2,4.3,0.3,6.5,0.3
							c6.1-0.1,8.7-3.4,12.2-8.8c6-9.1,7.7-21.3,5.4-37c-0.8-5.6-0.6-10.2,2.3-10.7c2.1-0.3,5.8,2.8,7.3,8.9
							c5.1,20.9-2.9,36-17.3,46.7c4.8-0.8,9.6-2,14.3-3.7c22.2-7.8,23.5-26.5,15.4-46.6c-1.9-4.8-3.3-6.5-3-7.6
							c0.5-1.9,4.5,0.7,7.1,5.8c8.4,16.5,5.4,27.3-2.3,40.3c2.9-1.7,5.6-3.5,8.1-5.4c5-3.8,7.4-6.8,7.6-13.6
							c0.3-13.3-3.2-19.7-7.2-27.9c-2.3-4.7,0.9-2.9,2.8-0.1c2,3,4.9,10.6,5.9,15.9c1.4,7.2,1.2,12.6,0.5,17.3
							c6.9-7.2,5.7-16.5,2.2-25.5c-1-2.4-1.9-4.5-2.2-6.8c-0.3-2.4,0.8-5.5,3.3-1.5c1.9,3.1,2.3,7.4,0.9,10.7
							c0.5,0.8,1.6,1.2,2.7,0.9c4.3-1.2,0.4-11.3-1-13.9C162.6,286.2,155.4,277.4,141.7,278L141.7,278z M142.5,283.1
							c3.5,0,6.4,1.5,6.4,3.4c0,1.9-2.9,3.4-6.4,3.4c-3.5,0-6.4-1.5-6.4-3.4C136.1,284.7,139,283.1,142.5,283.1z"/>
						<linearGradient id="SVGID_7_" gradientUnits="userSpaceOnUse" x1="121.1943" y1="290.8278" x2="86.6129" y2="333.7472">
							<stop  offset="0" style="stop-color:#31ADCC"/>
							<stop  offset="0.9951" style="stop-color:#198AA6"/>
						</linearGradient>
						<path class="st11" d="M141.6,274.8c-19,11.2-56.6,41.9-69,60c24.5-23.3,42.5-38,71.5-56.3c0.3-0.2,0.5-0.4,0.7-0.5
							c-1-0.1-2-0.1-3.1,0C141.8,276.9,141.7,275.8,141.6,274.8L141.6,274.8z"/>
					</g>
					<linearGradient id="SVGID_8_" gradientUnits="userSpaceOnUse" x1="93.0124" y1="309.2932" x2="137.275" y2="281.1655">
						<stop  offset="0" style="stop-color:#31ADCC"/>
						<stop  offset="0.9951" style="stop-color:#198AA6"/>
					</linearGradient>
					<path class="st12" d="M141.7,278c0.4-10.3-5.3-17.9-12.8-22.7c-2.7-1.7-5.7-3.3-8.9-2c-2.1,0.8-2.1,2.4-1.8,3.2
						c0.7,1.9,4.7,0.3,7.2,3.1c3.1,3.5-0.7,4-3.7,2.6c-1.8-0.9-4.9-4.7-8.3-7.7c-5.7-5.1-11.7-4.9-18.3-1.6c-1.3,0.7-2.7,1.4-4,2.2
						c5.8,0,17.3,0.1,29.3,12.7c2.6,2.7,1.9,3.8-1.3,1.4c-11-8.1-18.5-12.1-25.4-12.6c-4.6-0.3-7.1,0.9-10.7,3.7
						c-3.6,2.8-7,6.1-10.2,9.7c13.4-6.9,29.4-6,40.7,5.3c4.6,4.6,2.9,7.5,0.1,5.6c-6.3-4.2-22.3-15.4-39.4-6.3
						c-0.4,0.2-0.7,0.4-1.1,0.7c7.8,6.3,14.1,10.3,22.1,12.6c2.5-0.1,4.9,0,7.3,0.4c2.1,0.4,3.5,0.9,4.3,1.6
						c2.8,0.3,5.8,0.4,9.1,0.4c10.2,0.1,17.3,3.1,22.1,7.9c-0.5-1-0.7-1.6-0.6-2.1c0.5-1.8,4.1,0.5,6.7,5.2l0.1-0.1l0,0l0.1,0
						l0.1-0.1l0,0l0.1,0l0.1,0l0,0l0.1,0l0.1,0l0.1,0l0.1,0l0.1,0l0.1,0l0.1,0l0,0l0.1,0l0.1,0l0.1,0l0,0l0.1,0l0.1,0l0,0l0.1,0
						l0.1,0h0l0.1,0l0.1,0l0,0l0.1,0l0.1,0l0,0l0.1,0l0.1,0l0,0l0.1,0l0.1,0l0,0l0.1,0l0.1,0l0,0l0.1,0l0.1,0l0.1,0l0,0l0.1,0l0.1,0
						l0,0l0.1,0l0.1,0l0,0l0.1,0l0.1,0l0,0l0.1,0l0.1,0l0,0l0.1,0l0.1,0l0.1,0l0.1,0l0,0l0.1,0l0.1,0l0,0l0.1,0l0.1,0l0,0l0.1,0
						l0.1,0l0,0l0.1,0l0.1,0l0,0l0,0l0.1,0l0,0l0,0l0.1,0l0,0l0,0l0.1,0l0.1,0l0,0l0.1,0l0.1,0l0,0l0.1,0l0.1,0l0,0l0.1,0l0.1,0l0,0
						l0,0l0.2,0l0,0l0,0l0,0l0,0l0.1,0l0,0l0,0l0,0l0,0l0,0l0,0l0,0l0,0l0,0l0,0l0,0l0,0l0,0l0,0l0,0l0,0l0,0l0,0l0,0l0,0l0,0l0,0
						l0,0l0,0l0,0l0,0l0,0l0,0l0,0l0,0l0,0l0,0l0,0l0,0l0,0l0,0h0l0,0l0,0l0,0l0,0l0,0l0,0l0,0l0,0l0.1,0l0,0l0,0l0,0l0,0l0,0l0,0
						l0,0c-0.6-1.1-1.1-2.3-1.7-3.5c-2.3-4.7,0.9-2.9,2.8-0.1c0.5,0.8,1.2,2,1.8,3.3l0.1,0l0.1,0l0.1,0h0.1h0.1l0.1,0l0.1,0h0l0.1,0
						l0.2,0h0l0.1,0l0,0l0.1,0l0.1,0l0.1,0l0,0l0.1,0l0.1,0l0.1,0l0.1,0l0,0l0.1,0l0.1,0l0.1,0l0.1,0l0.1,0l0,0l0.1,0l0.2,0l0.1,0
						l0,0l0.1,0l0.2,0l0.1,0l0.1,0l0.1,0l0.1,0l0,0l0.1,0l0.1,0l0.1,0l0.1,0l0.1,0l0,0l0.1,0l0.2,0l0.1,0l0,0l0,0l0,0l0.3,0l0,0l0,0
						l0,0l0.2,0l0.1,0l0,0l0.1,0l0.2,0l0.1,0l0.1,0l0,0l0.3,0.1l0,0c-0.3-1-0.6-2-0.7-3c-0.3-2.4,0.8-5.5,3.3-1.5
						c1.1,1.7,1.7,3.9,1.7,6l0.1,0l0.2,0.1l0.1,0l0.1,0c0.1,0.1,0.2,0.1,0.4,0.2l0.1,0l0.2,0.1l0.1,0l0.1,0l0.2,0.1l0.1,0l0.1,0
						l0.1,0l0.2,0.1l0.1,0l0.1,0l0.1,0l0.2,0.1l0,0l0.1,0l0.1,0l0.1,0l0,0l0.2,0.1l0.1,0l0.1,0l0.1,0l0,0l0.2,0.1l0.1,0l0.1,0l0.1,0
						l0.1,0l0.1,0l0,0l0.1,0l0.1,0l0.1,0.1l0.1,0l0.1,0.1l0.1,0l0.1,0.1l0.1,0c0.2-3.5-2-8.9-2.9-10.8
						C162.6,286.2,155.4,277.4,141.7,278L141.7,278z M145.5,304.1L145.5,304.1L145.5,304.1l0.1-0.1l0.1,0l0.1,0l0.1,0l0,0l0.1,0
						l0.1,0l0.1,0l0.1,0l0,0l0.1,0l0.1,0l0,0l0.1,0l0,0l0,0l0.1,0l0,0l0,0l0.1,0l0,0l0,0l0.1,0l0,0l0,0l0.1,0l0,0l0.1,0l0.1,0l0,0
						l0.1,0l0.1,0l0,0l0.1,0l0.1,0l0.1,0l0.1,0l0,0l0.1,0l0.1,0l0,0l0.1,0l0,0l0,0l0.1,0l0,0l0,0l0.1,0l0,0l0,0l0.1,0l0,0l0,0l0.1,0
						l0,0l0.1,0l0.1,0l0,0l0.1,0l0.1,0l0,0l0.1,0l0.1,0l0,0l0.1,0l0,0l0.1,0l0.1,0l0,0l0.1,0l0.1,0l0.1,0l0,0l0,0l0.1,0l0,0l0.1,0
						l0,0l0.1,0l0,0l0.1,0l0.1,0l0,0l0.1,0l0.1,0l0,0l0.1,0l0.1,0c4.1-0.4,2.6,1.9,0.8,3l-0.1,0l0,0l0,0l0,0l0,0l-0.1,0l0,0l-0.1,0
						l0,0l0,0l0,0l0,0l-0.1,0l0,0l-0.1,0l0,0l0,0l0,0l0,0l-0.1,0l0,0l-0.1,0l0,0l0,0l0,0l0,0l-0.1,0l0,0l-0.1,0l0,0l0,0l0,0l0,0
						l-0.1,0l0,0l-0.1,0l0,0l0,0l0,0l0,0l-0.1,0l0,0l-0.1,0l0,0l-0.1,0l0,0l0,0l-0.1,0l0,0l-0.1,0l0,0l-0.1,0l0,0l0,0l-0.1,0l0,0
						l-0.1,0l0,0l-0.1,0l0,0l0,0l-0.1,0l0,0l-0.1,0l0,0l-0.1,0l0,0l0,0l-0.1,0l0,0l-0.1,0l0,0l-0.1,0l0,0l0,0l-0.1,0l0,0l-0.1,0l0,0
						l-0.1,0l0,0l0,0l-0.1,0l0,0l-0.1,0l0,0l-0.1,0l0,0l0,0l-0.1,0l0,0l-0.1,0l0,0l-0.1,0l0,0l0,0l0,0l0,0l-0.1,0l0,0l-0.1,0l0,0
						l0,0l0,0l0,0l-0.1,0h0l-0.1,0l0,0l0,0l0,0l0,0C146.4,306,146,305.1,145.5,304.1L145.5,304.1z M148.1,310.8
						c0.2,0.7,0.4,1.4,0.5,2.1l0.1,0l0.1,0l0,0l0.1,0l0.1,0l0.1,0l0,0l0.1,0l0.1,0l0.1,0l0,0l0.1,0l0.1,0l0.1,0l0,0l0.1,0l0.1,0
						l0.1,0l0.1,0l0.2-0.1l0,0l0.1,0l0.1,0l0.1,0l0,0l0.1,0l0.1,0l0.1,0l0,0l0.1,0l0.2,0l0,0l0.2-0.1l0.1,0l0.1,0l0.1,0l0.1,0l0,0
						l0.1,0l0.1,0l0.1,0l0,0l0.1,0l0.1,0l0.1,0l0,0l0.1,0l0.1,0l0.1,0l0,0l0.1,0l0.1,0l0.1,0l0.1,0l0.1,0l0.1,0l0,0l0.1,0l0.1,0
						l0.1,0l0,0l0.1,0l0.1,0l0.1,0l0,0l0.1,0l0.1,0l0.1,0l0,0l0.1,0l0.1,0l0.1,0l0.1,0l0.1,0l0.1,0l0,0l0.1,0l0.1,0l0.1,0l0,0l0.1,0
						l0.1,0l0.1,0l0,0l0,0l0,0l0,0l0,0l0,0l0,0l0,0l0,0l0,0l0,0l0,0l0,0l0,0l0,0l0,0l0,0l0,0l0,0l0,0l0,0l0,0l0,0l0,0l0,0l0,0l0,0
						l0,0l0,0l0,0l0,0l0,0l0,0l0,0l0,0l0,0l0,0l0,0l0,0l0,0l0,0l0,0l0,0l0,0l0,0l0,0l0,0l0,0l0,0l0,0l0,0l0,0l0,0l0,0l0,0l0,0l0,0
						l0,0l0,0c-0.1-0.6-0.3-1.2-0.4-1.8l0,0l0,0h0l0,0l0,0l0,0l0,0l0,0l0,0l0,0l0,0l0,0l0,0l0,0l0,0l0,0l0,0l0,0l0,0l0,0l0,0l0,0
						l0,0l0,0h0l0,0h0l0,0h0l0,0h0h0h0h0h0l0,0h0h0l0,0h0l0,0l-0.1,0l0,0l0,0l0,0l0,0l-0.2,0l0,0l0,0l0,0l0,0l0,0l0,0l0,0l0,0l0,0
						l0,0l0,0l0,0l0,0l0,0l0,0l0,0l0,0l-0.1,0l-0.1,0l0,0l-0.1,0l-0.1,0l0,0l-0.1,0l-0.1,0l0,0l-0.1,0l-0.1,0l0,0l-0.1,0l-0.1,0l0,0
						l-0.1,0l0,0l0,0l-0.1,0l0,0l-0.1,0l-0.1,0l0,0l-0.1,0l-0.1,0l0,0l-0.1,0l-0.1,0l0,0l-0.1,0l-0.1,0l0,0l-0.1,0l-0.1,0l0,0
						l-0.1,0l-0.1,0l0,0l-0.1,0l-0.1,0l0,0l-0.1,0l-0.1,0l0,0l-0.1,0l-0.1,0l0,0l-0.1,0l-0.1,0l0,0l-0.1,0l-0.1,0l-0.1,0l-0.1,0l0,0
						l-0.1,0l-0.1,0l0,0l-0.1,0l-0.1,0l0,0l-0.1,0l-0.1,0l0,0l-0.3,0.1l-0.1,0l0,0l-0.1,0l-0.1,0l0,0l-0.1,0l-0.1,0l0,0l-0.1,0
						l-0.1,0l0,0l-0.1,0l-0.1,0l0,0l-0.1,0l-0.1,0l-0.2,0.1l0,0l-0.1,0l-0.1,0l0,0l-0.2,0.1l-0.1,0l-0.4,0.1L148.1,310.8
						L148.1,310.8L148.1,310.8z M149.5,320.2c0,1.6-0.1,3.2-0.4,4.7l0,0l0.1,0c0.2-0.1,0.4-0.2,0.6-0.3l0,0c0.2-0.1,0.5-0.2,0.7-0.3
						l0,0c0.2-0.1,0.5-0.2,0.7-0.3l0,0l0.1,0l0.7-0.2l0.1,0c0.3-0.1,0.5-0.2,0.8-0.3l0,0c0.5-0.2,1-0.4,1.6-0.5l0,0
						c0.3-0.1,0.5-0.2,0.8-0.3l0,0c0.3-0.1,0.5-0.2,0.8-0.3l0,0l0,0l0,0l0,0l0,0l0,0l0,0l0,0l0,0l0,0l0,0l0,0l0,0l0,0l0,0l0,0l0,0
						l0,0l0,0l0,0l0,0l0,0l0,0l0,0l0,0l0,0l0,0l0,0l0,0l0,0l0,0l0,0l0,0l0,0l0,0l0,0l0,0l0,0l0,0l0,0l0,0l0,0h0l0,0l0,0l0,0l0,0l0,0
						l0,0l0,0l0,0l0,0l0,0l0,0l0,0l0,0l0,0l0,0l0,0l0,0l0,0l0,0l0,0l0,0l0,0l0,0l0,0l0,0l0,0l0,0l0,0l0,0c0-1.3,0-2.4-0.1-3.6l0,0
						l0,0l0,0l0,0l0,0l0,0l0,0l0,0h0l0,0l0,0l0,0l0,0l0,0l0,0l0,0l0,0l0,0l-0.1,0l0,0l0,0l0,0l0,0l0,0l0,0l0,0l0,0l0,0l0,0l0,0l0,0
						l0,0l0,0l0,0l0,0l0,0l0,0l0,0l0,0l0,0l0,0l0,0l0,0l0,0l0,0l0,0l0,0l0,0l0,0l0,0l0,0l0,0l0,0l0,0l0,0l0,0l0,0l-0.1,0l0,0l0,0
						l0,0l0,0l0,0l0,0l0,0l0,0l0,0l0,0l0,0l0,0l0,0l0,0l-0.7,0.1l0,0l-0.1,0l-0.6,0.1l-0.1,0l0,0l0,0l-0.6,0.1l-0.1,0l0,0l-0.1,0
						l-0.5,0.1l-0.1,0l-0.1,0l-0.1,0l-0.1,0l-0.3,0.1l-0.1,0l-0.1,0l-0.1,0l-0.1,0l-0.2,0.1l-0.1,0l-0.1,0l-0.2,0.1l-0.1,0l-0.1,0
						l-0.1,0l-0.1,0l-0.1,0l-0.3,0.1l-0.1,0l-0.1,0l-0.1,0l-0.1,0l-0.1,0l-0.2,0.1l-0.1,0l-0.1,0L149.5,320.2L149.5,320.2
						L149.5,320.2z M160.3,318.4c0.1,1,0.1,2,0.1,2.9l0,0l0,0l0.1,0l0,0l0.1,0l0,0l0,0l0.1,0l0,0l0,0l0.1,0l0,0l0.1,0l0,0l0,0l0.1,0
						l0,0l0,0l0.1,0l0,0l0.1,0l0,0l0,0l0.1,0l0,0l0,0l0.1,0l0,0l0,0l0,0l0,0l0.1,0l0,0l0,0l0.1,0l0,0l0,0l0,0l0,0l0,0l0,0l0,0l0,0
						l0,0l0,0l0,0l0,0l0,0l0,0l0,0l0,0l0,0l0,0l0,0l0,0l0,0l0,0l0,0l0,0l0,0l0,0l0,0l0,0l0,0l0,0l0,0l0,0l0,0l0,0l0,0l0,0l0,0l0,0
						l0,0l0,0l0,0l0,0l0,0l0,0l0,0l0,0l0,0l0,0l0,0l0,0l0,0l0,0l0,0l0,0l0,0l0,0l0,0l0,0l0,0l0,0l0,0l0,0l0,0l0,0l0,0l0,0l0-0.1l0,0
						l0-0.1l0,0l0,0l0,0l0,0l0-0.1l0,0l0-0.1l0,0l0-0.1l0,0l0,0l0,0v0v0l0,0v0v0l0,0l0-0.1l0,0l0-0.1l0,0l0-0.1l0,0l0,0l0,0l0,0l0,0
						l0,0l0,0l0,0l0,0l0,0l0,0l0,0l0,0l0,0l0,0l0,0l0,0l0,0l0,0c0,0-0.1-0.1-0.1-0.1l0,0l0,0l0,0l0,0l0,0l0,0l0,0l0,0l0,0l0,0
						l-0.1,0l0,0l0,0l-0.1,0l0,0l-0.1,0l0,0l0,0l-0.1,0l0,0l0,0l-0.1,0l0,0l-0.1,0l-0.1,0l0,0l-0.1,0l0,0l-0.1,0l0,0l0,0l-0.1,0l0,0
						l0,0l-0.1,0l0,0l-0.1,0l-0.1,0l0,0l-0.1,0l0,0l-0.1,0l-0.1,0l0,0l-0.1,0l0,0l0,0l-0.1,0l0,0l-0.1,0l-0.1,0l0,0l-0.1,0
						L160.3,318.4L160.3,318.4L160.3,318.4z M164.7,313.8c-0.2-2.1-0.6-4.3-1.2-6.5l0,0l0,0l0,0l0,0l0,0l0,0l0,0l0,0l0,0l0,0l0,0
						c-1.3,1-0.7,3.7,1.2,6.1l0,0l0,0l0,0l0,0l0,0l0,0l0,0l0,0l0,0l0,0l0,0l0,0l0,0l0,0l0,0l0,0l0,0l0,0l0,0l0,0l0,0l0,0l0,0l0,0
						l0,0l0,0l0,0l0,0l0,0l0,0l0,0l0,0l0,0l0,0l0,0l0,0L164.7,313.8L164.7,313.8L164.7,313.8L164.7,313.8L164.7,313.8L164.7,313.8
						L164.7,313.8L164.7,313.8L164.7,313.8L164.7,313.8L164.7,313.8L164.7,313.8L164.7,313.8L164.7,313.8L164.7,313.8L164.7,313.8
						L164.7,313.8L164.7,313.8L164.7,313.8L164.7,313.8L164.7,313.8L164.7,313.8L164.7,313.8L164.7,313.8L164.7,313.8L164.7,313.8z
						 M142.5,283.1c3.5,0,6.4,1.5,6.4,3.4c0,1.9-2.9,3.4-6.4,3.4c-3.5,0-6.4-1.5-6.4-3.4C136.1,284.7,139,283.1,142.5,283.1z"/>
				</g>
				<g>
					<g>
						<linearGradient id="SVGID_9_" gradientUnits="userSpaceOnUse" x1="97.3941" y1="248.0448" x2="149.4034" y2="205.7183">
							<stop  offset="0" style="stop-color:#31ADCC"/>
							<stop  offset="0.9951" style="stop-color:#198AA6"/>
						</linearGradient>
						<path class="st13" d="M155.1,196c-0.8-10.3-7.4-17.2-15.3-21c-2.9-1.4-6.1-2.6-9.1-0.9c-2,1.1-1.8,2.6-1.4,3.3
							c0.9,1.8,4.7-0.2,7.5,2.3c3.5,3.1-0.3,4.1-3.4,3c-1.9-0.6-5.4-4.1-9.2-6.7c-6.2-4.4-12.2-3.5-18.4,0.6
							c-1.2,0.8-2.5,1.7-3.7,2.7c5.7-0.6,17.2-1.9,30.6,9.2c2.9,2.4,2.3,3.5-1.1,1.6c-11.9-6.7-19.8-9.9-26.7-9.6
							c-4.7,0.2-6.9,1.7-10.2,5c-3.2,3.2-6.3,6.8-9,10.8c12.5-8.5,28.5-9.4,41.1,0.6c5.1,4.1,3.8,7.1,0.7,5.6
							c-6.8-3.5-24-12.7-39.9-1.7c-6.5,4.5-12.4,18-13.4,25.7c7-6.2,15.4-9.6,25.1-12.5c5.4-1.6,11.8-3.3,18-2.9
							c5.3,0.3,6.7,2.4,4.7,4.6c-1.9,2.1-13.1,2.1-19.6,2.8c-7.1,0.7-14.7,3.1-20.9,6.9c-5.3,3.2-8.3,5.5-8,11.6
							c0.2,4.7,1.2,9.2,3,13.8c4.4-9.2,8.6-13.1,19.4-16.8c3.5-1.2,6.8-1.8,8.5-0.5c2,1.5-1.2,4.5-6,6.1c-6.6,2.2-14,3.8-17.5,9.2
							c-4.8,7.4,2.8,12.7,5.8,20.1c9.3,1.9,18.2,13.2,25.8,4c4.6-5.6,5.1-14,5.4-23.9c0.2-6.2,1.4-13.8,4.3-13.1
							c3.4,0.9,9.6,28.1-5.4,42c2.1,0,4.3-0.2,6.5-0.5c6.1-0.8,8.2-4.4,11.1-10.2c4.9-9.7,5.2-22.1,1-37.4
							c-1.5-5.5-1.8-10.1,1.1-10.9c2.1-0.6,6.1,2.1,8.3,8c7.5,20.2,1.3,36.1-11.7,48.4c4.7-1.3,9.3-3.1,13.8-5.3
							c21.2-10.3,20.3-29,9.9-48.1c-2.5-4.5-4-6.1-3.9-7.2c0.2-1.9,4.5,0.2,7.7,4.9c10.3,15.4,8.5,26.5,2.5,40.3
							c2.6-2,5.1-4.1,7.4-6.3c4.6-4.3,6.6-7.6,5.9-14.4c-1.2-13.3-5.5-19.2-10.4-26.8c-2.8-4.4,0.5-3,2.7-0.4
							c2.4,2.8,6.1,9.9,7.8,15.1c2.3,7,2.7,12.4,2.5,17.1c6-7.9,3.8-17.1-0.8-25.6c-1.2-2.3-2.4-4.2-3-6.5c-0.6-2.4,0.1-5.6,3.1-1.8
							c2.3,2.8,3.1,7.1,2.2,10.5c0.6,0.7,1.8,1,2.8,0.6c4.1-1.7-0.9-11.2-2.6-13.7C176.7,201.7,168.6,193.8,155.1,196L155.1,196z
							 M156.5,201c3.5-0.4,6.6,0.8,6.8,2.6c0.2,1.9-2.5,3.7-6,4.1c-3.5,0.4-6.6-0.8-6.8-2.6C150.3,203.3,152.9,201.4,156.5,201z"/>
						<linearGradient id="SVGID_10_" gradientUnits="userSpaceOnUse" x1="136.2421" y1="211.0624" x2="106.8699" y2="257.7866">
							<stop  offset="0" style="stop-color:#31ADCC"/>
							<stop  offset="0.9951" style="stop-color:#198AA6"/>
						</linearGradient>
						<path class="st14" d="M154.6,192.9c-17.6,13.3-51.3,48.2-61.5,67.7c21.6-26,37.8-42.7,64.4-64.3c0.3-0.2,0.5-0.4,0.6-0.6
							c-1,0.1-2,0.2-3.1,0.3C155,194.9,154.8,193.9,154.6,192.9L154.6,192.9z"/>
					</g>
					<linearGradient id="SVGID_11_" gradientUnits="userSpaceOnUse" x1="158.898" y1="208.1559" x2="144.1996" y2="248.8885">
						<stop  offset="0" style="stop-color:#31ADCC"/>
						<stop  offset="0.9951" style="stop-color:#198AA6"/>
					</linearGradient>
					<path class="st15" d="M155.1,196c-0.8-10.3-7.4-17.2-15.3-21c-0.8-0.4-1.6-0.7-2.4-1c-0.3,1.9-0.6,3.7-0.9,5.5
						c0.1,0.1,0.2,0.1,0.3,0.2c2.4,2.2,1.3,3.3-0.7,3.4c-1.6,16.6,1.6,29.1,10.6,38.8c4,4.2,8.9,8.2,15.2,11.3
						c-1.2-3.8-2.9-7.6-5.1-11.5c-2.5-4.5-4-6.1-3.9-7.2c0.2-1.9,4.5,0.2,7.7,4.9c3.9,5.9,6.1,11.2,6.9,16.2c2.7,1,5.6,1.8,8.7,2.4
						c-1.4-12.5-5.5-18.3-10.3-25.7c-2.8-4.4,0.5-3,2.7-0.4c2.4,2.8,6.1,9.9,7.8,15.1c1.4,4.4,2.1,8.1,2.4,11.5
						c0.9,0.1,1.9,0.3,2.9,0.4c2.1-6.6,0-13.6-3.6-20.3c-1.2-2.3-2.4-4.2-2.9-6.5c-0.6-2.4,0.1-5.6,3.1-1.8
						c2.3,2.8,3.1,7.1,2.2,10.5c0.6,0.7,1.8,1,2.8,0.6c4.1-1.7-0.9-11.2-2.6-13.7C176.7,201.7,168.6,193.8,155.1,196L155.1,196z
						 M156.5,201c3.5-0.4,6.6,0.8,6.8,2.6c0.2,1.9-2.5,3.7-6,4.1c-3.5,0.4-6.6-0.8-6.8-2.6C150.3,203.3,152.9,201.4,156.5,201z"/>
				</g>
				<g>
					<g>
						<linearGradient id="SVGID_12_" gradientUnits="userSpaceOnUse" x1="234.2377" y1="310.1561" x2="193.477" y2="256.9104">
							<stop  offset="0" style="stop-color:#31ADCC"/>
							<stop  offset="0.9951" style="stop-color:#198AA6"/>
						</linearGradient>
						<path class="st16" d="M183.8,250.9c-10.3,0.5-17.4,6.9-21.5,14.7c-1.5,2.8-2.7,6-1.2,9.1c1,2,2.5,1.9,3.3,1.5
							c1.8-0.9-0.1-4.7,2.5-7.4c3.2-3.4,4.1,0.4,2.9,3.5c-0.7,1.9-4.2,5.3-7,9c-4.6,6.1-3.9,12.1,0,18.4c0.8,1.3,1.6,2.5,2.6,3.8
							c-0.5-5.8-1.4-17.2,10.1-30.3c2.5-2.8,3.6-2.2,1.5,1.2c-7.1,11.7-10.5,19.5-10.4,26.4c0.1,4.7,1.5,7,4.7,10.4
							c3.1,3.3,6.7,6.5,10.5,9.3c-8.1-12.7-8.5-28.8,1.8-41.1c4.2-5,7.2-3.5,5.6-0.6c-3.7,6.7-13.4,23.6-2.9,39.8
							c4.3,6.6,17.6,12.9,25.3,14.2c-6-7.2-9.1-15.7-11.7-25.5c-1.4-5.5-2.9-11.9-2.4-18.1c0.4-5.3,2.6-6.6,4.8-4.5
							c2,1.9,1.7,13.2,2.2,19.6c0.5,7.1,2.7,14.8,6.3,21.1c3.1,5.4,5.2,8.4,11.3,8.3c4.7-0.1,9.2-0.9,13.8-2.6
							c-9.1-4.6-12.8-8.9-16.3-19.9c-1.1-3.5-1.6-6.8-0.2-8.6c1.6-2,4.5,1.4,5.9,6.1c2,6.6,3.4,14.1,8.7,17.8
							c7.2,5,12.8-2.4,20.2-5.2c2.2-9.2,13.8-17.8,4.8-25.7c-5.4-4.7-13.9-5.6-23.7-6.1c-6.2-0.3-13.8-1.8-13-4.7
							c1-3.4,28.3-8.8,41.8,6.6c0-2.1-0.1-4.3-0.3-6.5c-0.6-6.1-4.1-8.3-9.9-11.4c-9.6-5.2-21.9-5.8-37.3-2.1
							c-5.5,1.3-10.1,1.5-10.9-1.4c-0.5-2.1,2.3-6,8.3-8c20.4-6.9,36.1-0.2,48.1,13.2c-1.2-4.8-2.9-9.4-4.9-13.9
							c-9.7-21.5-28.4-21.1-47.8-11.3c-4.6,2.3-6.2,3.8-7.3,3.6c-1.9-0.3,0.3-4.5,5.1-7.5c15.7-9.8,26.7-7.7,40.4-1.3
							c-1.9-2.7-4-5.2-6-7.6c-4.2-4.7-7.4-6.8-14.2-6.4c-13.3,0.8-19.4,4.9-27.1,9.6c-4.4,2.7-3-0.6-0.3-2.8
							c2.8-2.3,10.1-5.8,15.3-7.3c7-2.1,12.4-2.3,17.2-2c-7.8-6.2-17-4.3-25.6,0c-2.3,1.2-4.3,2.3-6.6,2.8c-2.4,0.5-5.6-0.3-1.7-3.2
							c2.9-2.2,7.2-2.9,10.5-1.9c0.8-0.6,1.1-1.7,0.7-2.8c-1.6-4.2-11.2,0.6-13.8,2.2C190.2,229.4,182,237.3,183.8,250.9
							L183.8,250.9z M188.9,249.6c-0.3-3.5,0.9-6.5,2.8-6.7c1.9-0.2,3.6,2.6,3.9,6.1c0.3,3.5-0.9,6.5-2.8,6.7
							C191,255.9,189.2,253.1,188.9,249.6z"/>
						<linearGradient id="SVGID_13_" gradientUnits="userSpaceOnUse" x1="198.3761" y1="270.1389" x2="244.1835" y2="300.8732">
							<stop  offset="0" style="stop-color:#31ADCC"/>
							<stop  offset="0.9951" style="stop-color:#198AA6"/>
						</linearGradient>
						<path class="st17" d="M180.7,251.2c12.8,18,46.7,52.7,65.8,63.5c-25.3-22.4-41.6-39.1-62.3-66.3c-0.2-0.3-0.4-0.5-0.6-0.6
							c0,1,0.1,2,0.3,3.1C182.8,250.9,181.7,251,180.7,251.2L180.7,251.2z"/>
					</g>
					<linearGradient id="SVGID_14_" gradientUnits="userSpaceOnUse" x1="211.5472" y1="301.6006" x2="194.7619" y2="250.6189">
						<stop  offset="0" style="stop-color:#31ADCC"/>
						<stop  offset="0.9951" style="stop-color:#198AA6"/>
					</linearGradient>
					<path class="st18" d="M183.8,250.9c-10.3,0.5-17.4,6.9-21.5,14.7c-1.5,2.8-2.7,6-1.2,9.1c1,2,2.5,1.9,3.3,1.5
						c1.8-0.9-0.1-4.7,2.5-7.4c3.2-3.4,4.1,0.4,2.9,3.5c-0.7,1.9-4.2,5.3-7,9c-4.6,6.1-3.9,12.1,0,18.4c0.8,1.3,1.6,2.5,2.6,3.8
						c-0.5-5.8-1.4-17.2,10.1-30.3c0.2-0.2,0.4-0.5,0.6-0.7c3.9-8.3,9-13.6,14.8-17.4c-1.1-1-1.9-3-2.1-5.3
						c-0.3-3.5,0.9-6.5,2.8-6.7c1.9-0.2,3.6,2.6,3.9,6.1c0.1,1.2,0,2.3-0.2,3.3c1.1-0.6,2.1-1.1,3.2-1.6c2.1-1,4.1-1.9,6-2.6
						c0.8-0.7,1.7-1.4,2.7-2.1c8-5,14.7-6.9,21.2-6.7c2.9-1.4,5.8-3.3,9.1-5.9c-2.7-2-5.7-2.8-10.2-2.5c-13.3,0.8-19.4,4.9-27.1,9.6
						c-4.4,2.7-3-0.6-0.3-2.8c2.8-2.3,10.1-5.8,15.3-7.3c7-2.1,12.4-2.3,17.2-2c-7.8-6.2-17-4.3-25.6,0c-2.3,1.2-4.3,2.3-6.6,2.8
						c-2.4,0.5-5.6-0.3-1.7-3.2c2.9-2.2,7.2-2.9,10.5-1.9c0.8-0.6,1.1-1.7,0.7-2.8c-1.6-4.2-11.2,0.6-13.8,2.2
						C190.2,229.4,182,237.3,183.8,250.9L183.8,250.9z M172.7,281.9c-2,7-3.3,15.5-3.9,26c-1.4-2.1-2.1-4.1-2.1-7.3
						C166.7,295.4,168.6,289.6,172.7,281.9z"/>
				</g>
				<g>
					<linearGradient id="SVGID_15_" gradientUnits="userSpaceOnUse" x1="229.7805" y1="198.3983" x2="171.8384" y2="176.9208">
						<stop  offset="0" style="stop-color:#31ADCC"/>
						<stop  offset="0.9951" style="stop-color:#198AA6"/>
					</linearGradient>
					<path class="st19" d="M166.5,171.3c-2.2-8.6,1.3-16,6.7-21.4c2-1.9,4.2-3.8,7.1-3.3c1.9,0.3,2.2,1.6,2.1,2.3
						c-0.3,1.7-3.9,1.1-5.5,3.9c-2,3.5,1.3,3.2,3.6,1.5c1.4-1.1,3.3-4.8,5.6-8c3.9-5.3,8.9-6.3,15.1-4.6c1.2,0.3,2.5,0.7,3.8,1.1
						c-4.8,1.1-14.5,3.2-22.4,16c-1.7,2.8-0.9,3.5,1.4,0.9c7.8-8.8,13.4-13.5,19.1-15.2c3.8-1.1,6.1-0.5,9.7,1.2
						c3.5,1.7,7,3.8,10.3,6.3c-12.5-3.4-25.8,0.3-33.3,11.8c-3,4.7-1.1,6.8,0.9,4.7c4.6-4.7,16-17,32-12.4c6.5,1.9,15,11.2,18,17.2
						c-7.4-3.2-15.2-3.5-23.9-3.2c-4.9,0.2-10.5,0.6-15.5,2.6c-4.2,1.7-4.8,3.8-2.5,5.1c2.1,1.2,11.3-1.9,16.7-3.2
						c6-1.4,12.9-1.5,19-0.2c5.2,1.2,8.3,2.2,9.7,7.2c1.1,3.9,1.6,7.8,1.4,12c-6.1-6.3-10.6-8.3-20.5-8.3c-3.2,0-6,0.4-7.1,2
						c-1.2,1.8,2.3,3.3,6.6,3.3c6,0,12.5-0.8,16.8,2.7c5.9,4.7,1.3,11.2,0.8,18c-7,4.2-11.2,15.8-19.9,10.4c-5.3-3.3-8.1-10-11-18
						c-1.9-5-5-10.9-7.2-9.5c-2.5,1.6,0,25.5,16,32.7c-1.7,0.6-3.6,1-5.4,1.4c-5.2,1.1-7.9-1.3-11.9-5.2
						c-6.7-6.6-10.4-16.6-11.2-30.1c-0.3-4.9-1.3-8.7-3.9-8.6c-1.8,0.1-4.4,3.4-4.5,8.8c-0.5,18.5,9,29.8,23,36.2
						c-4.2,0.2-8.5,0-12.7-0.5c-20.1-2.6-24.6-18-21.4-36.4c0.8-4.4,1.6-6.1,1.2-6.9c-0.7-1.5-3.6,1.4-4.9,6.1
						c-4.1,15.4,0.4,23.9,9.2,33.5c-2.7-0.9-5.3-1.9-7.8-3.1c-4.9-2.3-7.5-4.4-8.8-10.1c-2.7-11.2-0.9-17.2,1.1-24.7
						c1.1-4.3-1.3-2.3-2.3,0.4c-1.1,2.9-2.2,9.8-2.1,14.4c0.1,6.3,1.3,10.8,2.7,14.6c-7.1-4.8-7.8-12.9-6.5-21.1
						c0.4-2.2,0.8-4.1,0.6-6.1c-0.2-2.1-1.6-4.5-3.1-0.6c-1.1,2.9-0.6,6.6,1.1,9.1c-0.3,0.8-1.2,1.3-2.1,1.3
						c-3.8-0.2-2.4-9.4-1.7-11.9C150.4,181.9,154.8,173.2,166.5,171.3L166.5,171.3z M166.7,175.8c-3,0.6-5.1,2.4-4.8,4
						c0.3,1.6,3,2.3,6,1.7c3-0.6,5.1-2.4,4.8-4C172.4,175.9,169.7,175.1,166.7,175.8z"/>
					<linearGradient id="SVGID_16_" gradientUnits="userSpaceOnUse" x1="186.0165" y1="178.3615" x2="222.8906" y2="208.2684">
						<stop  offset="0" style="stop-color:#31ADCC"/>
						<stop  offset="0.9951" style="stop-color:#198AA6"/>
					</linearGradient>
					<path class="st20" d="M166,168.6c18,6,55.2,25.1,68.9,38.1c-24.8-15.2-42.7-24.3-70.3-34.5c-0.3-0.1-0.5-0.2-0.7-0.3
						c0.8-0.2,1.7-0.4,2.6-0.6C166.3,170.4,166.1,169.5,166,168.6L166,168.6z"/>
				</g>
			</g>
		</g>
		<g>
			<path class="st1" d="M276.8,547.2l166.1-93.8c4-1.8,9.7-3.3,13.8-1.2c3.7,1.9,9.8,5.9,12.5,7.4c2,1.2,9.2,5.4,4.7,7.8
				c-13,7.1-155.4,88-168.7,95.2c-2.5,1.4-6.2,1.9-10,1.5c-3.8-0.3-7.8-1.4-10.8-3.2c-2.2-1.3-4.4-2.5-6.5-3.8
				c-2.9-1.7-4.4-3.6-4.5-5.5C273.2,549.9,274.3,548.3,276.8,547.2z"/>
			<g>
				<path class="st21" d="M276,532.8c0,7.7,2.8,13.2,7.2,15.7l7,4.2c24-10.2,15.1-131.7,16.5-166.2l-7.4-181.2
					c6.2-10.8,30-20.3,24.4-42.3l70.3-32.9c3.1-2.1,85.1-49.6,70.4-58.5c-2.5-1.5-4.9-3-7.3-4.4c-5.4-3.2-12.4-1.2-17.4,1.7l0,0l0,0
					L299.9,149c-13.7,7.9-24.5,27-24.4,42.3L276,532.8z"/>
				<linearGradient id="SVGID_17_" gradientUnits="userSpaceOnUse" x1="348.9237" y1="343.0046" x2="201.8921" y2="501.6754">
					<stop  offset="0" style="stop-color:#105B91"/>
					<stop  offset="1" style="stop-color:#0A3C5F"/>
				</linearGradient>
				<path class="st22" d="M471.6,87.2c0-7.6-2.6-13-6.9-15.6c-4.5-2.8-10.8-2.5-17.7,1.6l-139.8,80.2c-13.5,7.8-24.5,26.8-24.4,42.3
					l0.6,341.5c0,15.5,11.1,21.8,24.6,14L447.7,471c13.5-7.8,24.5-26.8,24.4-42.3L471.6,87.2z"/>
				<g>
					<path class="st21" d="M302.3,181.9c-3.7,2.1-6.6,0.4-6.7-3.8c0-4.2,2.9-9.3,6.6-11.5c3.7-2.1,6.6-0.4,6.7,3.8
						C308.9,174.6,305.9,179.8,302.3,181.9z"/>
					<path class="st21" d="M408.4,113.4c0-1.1-0.8-1.6-1.8-1c-14.5,8.2-38.3,21.6-52.9,29.8c-1,0.6-1.8,2-1.8,3.2l0,2.3
						c0,1.1,0.8,1.6,1.8,1c14.5-8.2,38.3-21.6,52.9-29.8c1-0.6,1.8-2,1.8-3.2L408.4,113.4z"/>
				</g>
			</g>
			<g>
				<g>
					<path class="st23" d="M320.5,261.6c2.7-3.7,5.4-7.3,8.3-10.7c2.9-3.4,5.8-6.7,8.9-9.9l1.6,1.6c-3,3.1-6,6.4-8.8,9.8
						c-2.9,3.4-5.6,7-8.2,10.6L320.5,261.6L320.5,261.6z M345.8,233.3c2.6-2.3,5.2-4.5,7.9-6.6c2.7-2.1,5.4-4,8.1-5.9l1.2,1.9
						c-2.7,1.8-5.4,3.8-8,5.8c-2.7,2.1-5.3,4.2-7.8,6.5L345.8,233.3L345.8,233.3z M369.3,216.1c1.1-0.6,2.1-1.2,3.1-1.7
						c1-0.6,2.1-1.1,3-1.6c1-0.5,2.1-1,3.3-1.5c1.1-0.5,2.2-1,3.2-1.4l0.9,2.1c-1.1,0.4-2.1,0.9-3.2,1.4c-1,0.5-2.1,1-3.2,1.5
						c-1,0.5-2,1-3,1.5c-1.1,0.6-2.1,1.1-3,1.7L369.3,216.1L369.3,216.1z M388.9,207.3c1.8-0.6,3.5-1.1,5.2-1.5
						c1.7-0.4,3.4-0.8,5.2-1.1l0.4,2.2c-1.6,0.3-3.3,0.7-5,1.1c-1.7,0.4-3.4,0.9-5.1,1.5L388.9,207.3L388.9,207.3z M406.4,203.7
						c1.2-0.1,2.4-0.1,3.6-0.2c1.2,0,2.4,0,3.6,0l-0.1,2.2c-1.1,0-2.3-0.1-3.5,0c-1.1,0-2.3,0.1-3.5,0.2L406.4,203.7L406.4,203.7z
						 M418.6,204c0.7,0.1,1.4,0.2,2.1,0.3c0.7,0.1,1.4,0.2,2,0.4l-0.5,2.2c-0.6-0.1-1.3-0.3-1.9-0.4c-0.7-0.1-1.4-0.2-2-0.3
						L418.6,204L418.6,204z M443.8,214.7c9.3,7.6,16,18.9,19.3,33.2c3,13.4,3,29.4-0.9,47.6c-4,18.7-11.9,37.7-22.6,55.1
						c-10.7,17.4-24.2,33-39.2,45.1l-1.4-1.7c14.8-11.9,28.2-27.4,38.7-44.6c10.6-17.1,18.4-35.9,22.3-54.3
						c3.8-17.9,3.9-33.6,0.9-46.7c-3.1-13.8-9.6-24.7-18.5-32L443.8,214.7L443.8,214.7z M376.8,411c-17.2,8.6-33.4,10.9-47.3,8
						c-7.6-1.6-14.4-4.8-20.3-9.4c-5.9-4.6-10.7-10.7-14.4-18.1c-7.8-15.6-10.1-37.1-4.6-62.9c1.9-9,4.7-18.1,8.3-27.1
						c3.7-9.1,8.1-18.1,13.3-26.6l1.9,1.1c-5.1,8.5-9.5,17.3-13.1,26.3c-3.5,8.8-6.3,17.8-8.2,26.7c-5.4,25.3-3.1,46.3,4.4,61.5
						c3.5,7.1,8.2,12.9,13.8,17.3c5.6,4.4,12.1,7.5,19.4,9c13.3,2.8,29.1,0.5,45.8-7.8L376.8,411z"/>
					<path class="st24" d="M376,227.1c47.8-23.8,86.8,8.3,73.5,70.4c-6.8,32.2-27.3,65.3-53.1,86c-6.8,5.4-13.5,9.8-20.1,13
						c-47.8,23.8-86.5-8.3-73.4-70.2c6.7-32.2,27.2-65.5,52.9-86.2C362.6,234.8,369.4,230.4,376,227.1z"/>
					<path class="st24" d="M376,250.1c34.9-17.4,63.3,6.1,53.6,51.3c-5,23.5-19.9,47.6-38.7,62.7c-4.9,4-9.9,7.1-14.6,9.5
						c-34.8,17.3-63-6.1-53.5-51.2c4.9-23.5,19.8-47.7,38.5-62.8C366.3,255.7,371.2,252.5,376,250.1z"/>
					<g>
						<path class="st25" d="M384.6,279.5c-5.1,3.1-10.6,10.2-12.7,18.3c-3.3-1.8-7.8-2.8-11.7-2.1c-13.5,2.3-21.2,20.5-19.1,33
							c1.4,9.5,8.2,19.3,24.4,26.1c5.5,2.3,12.9,5,14.3,4.2c0.1-0.1,0.2-0.1,0.3-0.2c0.1-0.1,0.2-0.1,0.2-0.1
							c3.9-2.4,32.5-61,31.4-67.5C410.2,278.3,393.3,273.7,384.6,279.5z"/>
						<path class="st26" d="M393.4,284.4c-6.4,3.5-12.6,10.6-15.2,20.3c-3.1-6.6-9.5-6.8-16-3.4c-9,4.9-17.9,17-17.4,28.8
							c0.2,9,5.8,18.4,21.1,24.9c5.2,2.2,12.3,4.7,13.7,4c0.1-0.1,0.2-0.1,0.3-0.2c0.1-0.1,0.2-0.1,0.3-0.1
							c1.7-0.9,8.1-10.9,13-18.5c14.3-22.6,19.2-37.6,18.8-46.5C411.8,281.7,402.4,279.5,393.4,284.4z"/>
						<polygon class="st27" points="358.5,329.8 358.1,289.1 364.8,350.2 365.9,315.4 369.8,323.1 373.2,321.1 373.5,298.1 
							378.2,328.7 378.9,318.3 383,315.5 383.6,282.3 388.7,324.4 389.5,312 392.4,310.3 392.4,293.4 396.3,310.5 397.3,305.3 
							398.6,306.2 400.4,295.8 401.7,313 402.5,304.7 438.3,285.8 404.1,305.7 401.4,331.7 399.7,309 398.4,308.1 396.4,318.4 
							394,308 394,311.3 391.1,313 389.2,342.1 384.8,306.4 384.7,316.4 380.5,319.3 378.5,337.5 374.8,315.4 374.9,322 
							369.1,325.4 367.3,321.9 365.6,371.4 359.7,315.4 360.1,330.7 316.3,354.9 						"/>
					</g>
				</g>
				<g>
					<g>
						<path class="st28" d="M308.9,196.5c-7.5,4.2-14.1,14.3-14.7,22.6c-0.6,8.3,5,11.6,12.6,7.5c7.5-4.2,14.1-14.3,14.7-22.6
							C322,195.7,316.4,192.4,308.9,196.5z"/>
						<g>
							<polygon class="st28" points="328.7,205.3 328.7,200.2 386.9,166.6 386.9,171.7 							"/>
							<polygon class="st28" points="328.7,191.1 349.3,179.2 349.3,184.3 328.7,196.2 							"/>
							<polygon class="st28" points="367.7,192.1 328.8,214.6 328.8,209.5 367.7,187 							"/>
						</g>
					</g>
					<g>
						<path class="st28" d="M364.8,455.5c-7.5,4.2-14.1,14.3-14.7,22.6c-0.6,8.3,5,11.6,12.6,7.5c7.5-4.2,14.1-14.3,14.7-22.6
							C378,454.7,372.4,451.4,364.8,455.5z"/>
						<g>
							<polygon class="st28" points="384.7,464.3 384.7,459.2 442.8,425.6 442.8,430.7 							"/>
							<polygon class="st28" points="384.6,450.1 405.2,438.2 405.2,443.3 384.7,455.2 							"/>
							<polygon class="st28" points="423.7,451.1 384.7,473.6 384.7,468.5 423.7,446 							"/>
						</g>
					</g>
				</g>
			</g>
		</g>
		<g>
			<g>
				<linearGradient id="SVGID_18_" gradientUnits="userSpaceOnUse" x1="454.512" y1="156.5719" x2="477.3248" y2="179.2614">
					<stop  offset="0" style="stop-color:#105B91"/>
					<stop  offset="1" style="stop-color:#0A3C5F"/>
				</linearGradient>
				<polygon class="st29" points="428.7,125.6 428.9,203.3 471.9,178.5 471.5,101.3 				"/>
				<g>
					<path class="st23" d="M475.5,91.1c0.7-0.4,0.9-1.2,0.5-1.9c-0.4-0.7-1.2-0.9-1.9-0.5l-12.3,7.1c-0.7,0.4-0.9,1.2-0.5,1.9
						c0.4,0.7,1.2,0.9,1.9,0.5L475.5,91.1L475.5,91.1z M457.1,101.8c0.7-0.4,0.9-1.2,0.5-1.9c-0.4-0.7-1.2-0.9-1.9-0.5l-6.8,3.9
						c-0.7,0.4-0.9,1.2-0.5,1.9c0.4,0.7,1.2,0.9,1.9,0.5L457.1,101.8L457.1,101.8z M437.7,113l-7.9,4.6l0.3,75.9l124.2-71.7
						L554,45.8l-71.9,41.5c-0.7,0.4-1.5,0.2-1.9-0.5c-0.4-0.7-0.2-1.5,0.5-1.9l76-43.9c0.1,33,0.2,49.3,0.3,82.3
						c-44.6,25.7-85.2,49.1-129.8,74.9c-0.1-33-0.2-49.3-0.3-82.3l9.3-5.4c0.7-0.4,1.5-0.2,1.9,0.5
						C438.6,111.7,438.3,112.6,437.7,113z"/>
					<linearGradient id="SVGID_19_" gradientUnits="userSpaceOnUse" x1="495.8881" y1="79.9382" x2="494.6306" y2="140.2884">
						<stop  offset="0" style="stop-color:#31ADCC"/>
						<stop  offset="0.9951" style="stop-color:#198AA6"/>
					</linearGradient>
					<polygon class="st30" points="553.6,52.6 436.2,120.4 436.5,187.2 553.9,119.5 					"/>
					<g>
						<path class="st23" d="M457.6,149.2c8.6-5,16.1-16.7,16.7-26.2c0.7-9.5-5.8-13.1-14.3-8.2c-8.6,5-16.1,16.7-16.7,26.2
							C442.6,150.5,449,154.2,457.6,149.2z"/>
						<linearGradient id="SVGID_20_" gradientUnits="userSpaceOnUse" x1="458.3375" y1="126.2113" x2="457.9818" y2="155.6281">
							<stop  offset="0" style="stop-color:#31ADCC"/>
							<stop  offset="0.9951" style="stop-color:#198AA6"/>
						</linearGradient>
						<path class="st31" d="M470,133.4c0-1-0.3-1.6-0.9-2c-0.6-0.3-1.4-0.3-2.2,0.2l-3.8,2.2c-1.6,2.1-3.6,4-5.6,5.2
							c-2.1,1.2-4,1.6-5.4,1.2l-2.7,1.6c-1.7,1-3.1,3.4-3.1,5.3l0,3c2.6,2,6.6,1.9,11.3-0.9c4.8-2.8,9.3-7.7,12.4-13.2L470,133.4
							L470,133.4z M457.6,136.8c-4,2.3-7,0.6-6.7-3.8c0.3-4.4,3.8-9.9,7.8-12.2c4-2.3,7-0.6,6.7,3.8
							C465.2,128.9,461.6,134.4,457.6,136.8z"/>
					</g>
					<path class="st23" d="M546.4,103c1.3-0.7,2.3-0.1,2.3,1.3l0,5.2c0,1.5-1,3.2-2.3,4c-34.2,19.8-68.5,39.6-102.7,59.3
						c-1.2,0.6-2.2,0.1-2.2-1.4l0-5.2c0-1.5,1-3.2,2.3-4C477.9,142.5,512.1,122.7,546.4,103z"/>
					<path class="st23" d="M543.2,70.8c1.3-0.7,2.3-0.1,2.3,1.3l0,5.2c0,1.5-1,3.2-2.3,4c-34.2,19.8-30.8,17.5-65,37.3
						c-1.2,0.6-2.2,0.1-2.2-1.4l0-5.2c0-1.5,1-3.2,2.3-4C512.5,88.3,509,90.5,543.2,70.8z"/>
					<path class="st23" d="M511.6,105.2c1.3-0.7,2.3-0.1,2.3,1.3l0,5.2c0,1.5-1,3.2-2.3,4c-34.2,19.8,1.9-1.3-32.3,18.5
						c-1.2,0.6-2.2,0.1-2.2-1.4l0-5.2c0-1.5,1-3.2,2.3-4C513.6,103.8,477.4,124.9,511.6,105.2z"/>
				</g>
			</g>
			<g>
				<linearGradient id="SVGID_21_" gradientUnits="userSpaceOnUse" x1="317.804" y1="475.6189" x2="356.0259" y2="516.7208">
					<stop  offset="0" style="stop-color:#105B91"/>
					<stop  offset="1" style="stop-color:#0A3C5F"/>
				</linearGradient>
				<path class="st32" d="M340,388.6l-56.8,32.8l-7.3-5.2l4.3,126.7c0,3.4,0.2,3.5,2,4.9l7.7,4.6l50.3-29.1L340,388.6z"/>
				<g>
					<linearGradient id="SVGID_22_" gradientUnits="userSpaceOnUse" x1="270.0467" y1="460.5549" x2="298.8079" y2="505.2177">
						<stop  offset="0" style="stop-color:#2981E6"/>
						<stop  offset="1" style="stop-color:#1761A6"/>
					</linearGradient>
					<polygon class="st33" points="331.2,393.3 237.1,447.6 237.3,571.8 331.4,517.5 					"/>
					<path class="st23" d="M328,406.8l-2.3-1.3l-2.3,4c-0.6,0.7-1.4,0.3-1.1-0.7l2.3-4l-2.3-1.3c-0.5-0.7-0.2-1.8,1.1-1.8l2.3,1.3
						l0,0l2.3-4c0.5-0.7,1.4-0.4,1.1,0.6l-2.3,4l2.3,1.3C329.6,405.9,328.7,406.9,328,406.8z"/>
					<g>
						<g>
							<path class="st34" d="M306,495c-5.6,9.6-13.2,18-21.7,22.9c-5.5,3.2-10.8,4.5-15.3,4.1l-4.1,10.6c5.7,0.5,12.4-1.1,19.5-5.2
								c10.8-6.2,20.5-16.9,27.5-29L306,495z"/>
							<path class="st35" d="M256.5,466.9c-7,12.1-11.3,25.9-11.3,38.2c0,16.6,7.9,26.6,19.6,27.5l4.1-10.6
								c-9.2-0.8-15.4-8.6-15.4-21.7c0-9.7,3.4-20.5,8.9-30.1L256.5,466.9z"/>
							<path class="st36" d="M284,437.9c-10.7,6.2-20.4,16.8-27.5,29l5.9,3.4c5.5-9.6,13.2-18,21.6-22.8c5.6-3.2,10.8-4.5,15.4-4.1
								l4.1-10.7C297.8,432.1,291.1,433.8,284,437.9z"/>
						</g>
						<path class="st26" d="M303.6,432.4l-4.1,10.7c9.2,0.8,15.4,8.6,15.5,21.6c0,9.8-3.4,20.5-8.9,30.1l5.8,3.4
							c7.1-12.2,11.3-25.9,11.3-38.3C323.1,443.4,315.3,433.4,303.6,432.4z"/>
					</g>
					<path class="st23" d="M260.1,448l-12.8,7.3l0,15.5h1.2l0-14.8l12.2-7L260.1,448L260.1,448z M247.5,532.5l0,19.8l17.3-10l-0.6-1
						l-15.5,9l0-17.7H247.5L247.5,532.5z M309.4,516.5l11.7-6.8l0-16h-1.2l0,15.3l-11.1,6.4L309.4,516.5L309.4,516.5z M321,427.9
						l0-15l-11.8,6.9l0.6,1l10-5.8l0,12.9H321z"/>
					<path class="st23" d="M303.3,471.5c0-13.1-9.4-16.4-19.2-10.8c-5.2,3-10,8.2-13.4,14.2c-3.4,5.9-5.5,12.6-5.5,18.7
						c0,8.1,3.9,13,9.6,13.5c2.8,0.2,6.1-0.6,9.5-2.6C294.8,498.4,303.3,483.6,303.3,471.5z"/>
				</g>
			</g>
		</g>
		<g>
			<path class="st1" d="M638.4,471.1l-61.6-35.1c-6.7-3.1-16.3-5.5-23.2-1.9c-6.2,3.2-16.5,9.9-21,12.5c-3.4,2-15.4,9.1-8,13.2
				c21.9,11.9,43.6,25.3,65.9,37.4c4.2,2.3,10.4,3.1,16.8,2.6c6.4-0.5,13-2.4,18.2-5.4c3.7-2.2,7.3-4.3,10.9-6.4
				c4.8-2.8,7.4-6.1,7.6-9.2C644.4,475.8,642.5,473,638.4,471.1z"/>
			<g>
				<path class="st37" d="M599.4,381.9c-5.1-11.3-22.2-12.3-29.3-11.2l0.6-24.9l21.2,1.6C595.7,356.3,604.9,372.9,599.4,381.9z"/>
				<g>
					<g>
						<path class="st38" d="M505.7,218.8c-2.6,1.1-1,4.1,0.1,4.9c1.7,1.4,4.9,2.2,4.7,3.9c-0.2,1.8,10.2,4.6,10.2,4.5
							c-1.8-4.8-4.7-7.6-5.3-7.9C509.7,221,510.5,223.2,505.7,218.8z"/>
						<linearGradient id="SVGID_23_" gradientUnits="userSpaceOnUse" x1="507.3264" y1="231.9682" x2="508.063" y2="229.6871">
							<stop  offset="0" style="stop-color:#E8A476"/>
							<stop  offset="1" style="stop-color:#F1B287"/>
						</linearGradient>
						<path class="st39" d="M514.3,239.3c0.9,1,1.7,2.1,2.6,3.4l6.9-5.5c-0.7-1-1.4-2-2-3.2c-0.3-0.8-0.7-1.5-1-2.1
							c-2.3-4-4.3-5.1-12.2-6c-2.3-0.3-3.1-1-4.6-2l-5.5-4.7c-1.8-1.3-3.2-1.6-3.9-1.2c-0.8,0.5-2.6,4.7-2.5,6.9l0,0
							c-0.2,0.8,0.8,2.3,2.9,3.7l7,8.4l0.6,0C509.6,237.4,512.4,237.9,514.3,239.3z"/>
					</g>
					<linearGradient id="SVGID_24_" gradientUnits="userSpaceOnUse" x1="555.8381" y1="248.8384" x2="539.5024" y2="236.7386">
						<stop  offset="0" style="stop-color:#BED2E8"/>
						<stop  offset="1" style="stop-color:#CEE0F3"/>
					</linearGradient>
					<path class="st40" d="M546.6,275.8c4.5-2.6,20.3-25.3,28.7-37.8c4.8-7.1,3.7-13-3.6-15.5c-14.5-5-20,11.9-24,20.8
						c-1.9,4.2-2.9,8.7-4.8,12c-3.7-5.5-9.8-10.7-15-16.3c-1-1.1-2.1-1.9-3.4-2.4c-0.8-0.8-1.8-1.7-2.3-2.7c-1-0.3-6.3,2.7-7.7,5.9
						c0.5,0.6,1.2,1.8,1.6,2.5c0.7,0.9,0.6,2.1,1.2,3.1c1.9,3.6,11,19.2,16.7,25.1c1.9,2,4.6,5.3,7.5,5.5
						C543.1,276.7,545,276.7,546.6,275.8z"/>
					<path class="st41" d="M546.6,275.8c4.5-2.6,20.3-25.3,28.7-37.8c4.8-7.1,4.1-12.7-3.2-15.2c-11.9-4.1-18.3,8.1-21.6,15.9
						c-4.9,11.6-7,33.8-11.4,30.7c-5.1-3.6-16.5-16.8-21.8-23.8c1.9,3.6,11,19.2,16.7,25.1c1.9,2,4.6,5.3,7.5,5.5
						C543.1,276.7,545,276.7,546.6,275.8z"/>
				</g>
				<g>
					<path class="st42" d="M604.9,449.9c0.4,1.2,0.2,2.2,0.8,3.7c0.6,1.5,1.4,3.3,2.1,5.9c1.1,4.1-0.1,9.7,1.4,15.5
						c0.7,2.3,0.7,4.2-0.8,6.3c-1.5,2-4.2,5.3-8,5.2c-0.9,0-2.6-0.4-4-1.9c-1.5-1.6-2.7-4-2.6-6.9c0-1.1,0.6-4.7,0.4-8
						c-0.2-2.9-0.7-4.4-0.8-7.6c0-3.3,0.1-7.9,0.1-10L604.9,449.9z"/>
					<path class="st42" d="M571.4,432.9c1.2,2.9,1.9,4.2,2.1,8.3c-0.6,2.2-2.1,3.1-3.8,4.6l-1.2,0.3c-2.9,1.6-3.9,7.3-6.6,9.8
						c-1.9,1.8-5.8,2.8-9.6,3.5c-4.1,0.8-8-0.4-7.1-3.6c2.4-8,13.7-17.1,13.7-26.1L571.4,432.9z"/>
					<linearGradient id="SVGID_25_" gradientUnits="userSpaceOnUse" x1="565.0074" y1="367.5575" x2="547.3701" y2="365.8226">
						<stop  offset="0" style="stop-color:#072C47"/>
						<stop  offset="1" style="stop-color:#104E7A"/>
					</linearGradient>
					<path class="st43" d="M552.5,375.6c0.7,15.4,4.9,44.3,4.8,59.4c4,3.9,11.9,2.7,14.3-1.3c1.2-14,2.5-33.8,2.5-41.5
						c0-6.4-0.8-12.3-2.6-18c1.8-16.9,10.9-39.9,8.1-55.7c-1.2-7-6-14.5-7.5-20.2c-11.1,14.2-20,7.4-24.8,6.1
						c0.2,4.9-0.2,4.2,0.1,9.4c1,17.4,2.4,35.9,3.8,54C551.4,370.4,551.7,373.4,552.5,375.6z"/>
					<path class="st44" d="M573.5,406.8c0.4-6.1,0.6-11.4,0.6-14.6c0-6.4-0.8-12.3-2.6-18c1.8-16.9,10.9-39.9,8.1-55.7
						c-1.2-7-6-14.5-7.5-20.2c-11.1,14.2-20,7.4-24.8,6.1c0,0.5,0,1,0,1.4l15.4,11.1l-3.7-0.8c0.7,20,3.7,38.3,4.6,58
						c4.2,11.2,6.8,20.8,9.8,32.3L573.5,406.8z"/>
					<linearGradient id="SVGID_26_" gradientUnits="userSpaceOnUse" x1="572.6447" y1="381.8405" x2="595.8165" y2="378.5022">
						<stop  offset="0" style="stop-color:#105B91"/>
						<stop  offset="1" style="stop-color:#0A3C5F"/>
					</linearGradient>
					<path class="st45" d="M578.4,386.8c3.2,15.4,12.3,52.8,14.7,68c5.1,2.8,11.4,1.3,13-2.7c-0.3-14-1.1-39.1-2.4-46.8
						c-1-6.4-3.6-16.2-6.3-22c0-36,3.8-45.6-1.5-61.5c-2.3-7-8.1-13.7-10.5-19.4c-3,4.7-7.5,11.5-17.7,10.6c-1-0.1-9.7-6.2-12.5-6.8
						c4.2,21.4,15.2,49.4,20.8,72.8C576.4,381.6,577.2,384.6,578.4,386.8z"/>
				</g>
				<linearGradient id="SVGID_27_" gradientUnits="userSpaceOnUse" x1="582.7889" y1="232.5741" x2="573.3638" y2="298.549">
					<stop  offset="0" style="stop-color:#31ADCC"/>
					<stop  offset="0.9951" style="stop-color:#198AA6"/>
				</linearGradient>
				<path class="st46" d="M565.5,223.1c-1.1,0.1-2.1,0.3-3.2,0.8c-7.7,3.6-10.6,15.6-12.5,26.1c-1.7,9.2-1.1,16.7-1.4,25.2
					c-0.2,6.8-1.5,12.9-1.7,19.3c0,1.9-0.5,3.8,0.1,6c0.2,1.4,0.4,3.7,0.3,4.8c6.1,13.4,38.9,15.4,44.6,7.4c-0.6-1.4-0.8-2.3-1-3.7
					c2.9-2.7,1-10.2,1.9-15.3c0.7-3.8,1.5-7.7,2.8-10.4c5.6-11.4,12.9-20,14.9-29c1.3-6.2-6.1-14.5-16.1-21.5
					C584.5,226.2,571,221.9,565.5,223.1z"/>
				<path class="st47" d="M574.8,317.8c3.1-0.8,15.6-3.3,16.8-5c-0.6-1.4-0.8-2.3-1-3.7c2.9-2.7,1-10.2,1.9-15.3
					c0.7-3.8,1.5-7.7,2.8-10.4c5.6-11.4,12.9-20,14.9-29c0.7-3.3-1-7.1-4.3-11.1c-3.4-0.6-17.8-6.9-19.9-5.1
					c-5.6,4.7-10.2,19.3-11.9,26.9C570.1,282.8,570.6,301.6,574.8,317.8z"/>
				<linearGradient id="SVGID_28_" gradientUnits="userSpaceOnUse" x1="585.3509" y1="423.2953" x2="577.1779" y2="252.5898">
					<stop  offset="0" style="stop-color:#BED2E8"/>
					<stop  offset="1" style="stop-color:#CEE0F3"/>
				</linearGradient>
				<path class="st48" d="M598.8,326.9c-0.4-1.7-0.8-3.4-1.4-5.2c-2-5.9-3.9-22.6-2.9-28c0.7-3.8,1.5-7.7,2.8-10.4
					c5.6-11.4,11.1-19.9,13-28.8c1.3-6.2-6.1-14.5-16.1-21.5c-9.7-6.7-23.2-11-28.7-9.8c-1.1,0.1-2.1,0.3-3.2,0.8
					c-7.7,3.6-11.3,14.6-13.3,25.2c-1.7,9.2-1.1,16.7-1.4,25.2c-0.8,23.4-1.7,49.5,2.3,72.6c-1.2-17.1-0.5-32.5,1.2-54.1
					c1.5-19.4,0.3-37,11.2-53.9c6.7-10.4,15-15.6,22.1-11c3,1.9,5.5,3.3,0.8,12.8c-12.6,25.8-12.2,47.9-9.1,67
					c4.6,28.3,15.7,45.6,22.6,69.5c0.4,3.3,0.8,6.3,1.4,8.9c5.9-0.9,8.6-4.5,11.1-9.5C605.5,368.4,600.2,333.4,598.8,326.9
					L598.8,326.9z"/>
				<path class="st41" d="M611,376.2c-6.7-11.1-10.4-44.7-13.7-54.6c-2-5.9-3.9-22.6-2.9-28c0.7-3.8,1.5-7.7,2.8-10.4
					c5.6-11.4,11.1-19.9,13-28.8c0.7-3.3-1-7.1-4.3-11.1c-3.4-0.6-6.6-0.1-8.7,1.7c-5.6,4.7-6.9,15.8-8.6,23.3
					c-2.5,11-2.7,34.8-1.1,47.1c0.2,1.9-5.3,8.8-4.3,10.6c4,8.1,8.4,1.8,9.1,3.8C594,334.4,603.6,369.3,611,376.2z"/>
				<g>
					<linearGradient id="SVGID_29_" gradientUnits="userSpaceOnUse" x1="564.668" y1="233.0852" x2="555.6681" y2="296.6345">
						<stop  offset="0" style="stop-color:#105B91"/>
						<stop  offset="1" style="stop-color:#0A3C5F"/>
					</linearGradient>
					<path class="st49" d="M569.5,239.8c-8.4,10.6-6.5,16.4-4.5,25.8c2.3,10.2-2.8,20.4-7.2,31.6c-3.3,2.8-8.5,5.3-12.9,6.5
						c1-7.5,0.8-10.6,0.4-15.1c4.6-4.9,7.8-11.8,8.4-17.2c1.1-10.7-1.8-21,13.4-33.5c0.5-4.5,1.3-5.2,2.4-5.4
						c1.2-0.3,0.4-0.7,3.2,0.9c1.8,1.1,3.7,2.2,2.5,4.1C574.2,239.1,573.2,239.4,569.5,239.8z"/>
					<path class="st50" d="M572.9,228.3c-0.1-0.6-0.2-1.2-0.2-1.9c-0.2-1.9,0.6-5.5,0.4-9.8l16.5-1.6l3.6-0.7
						c-2.5,5.5-2.2,10.8-1.5,15.5c-1.1,5.7-12.7,4.5-18.8,3.9C572.7,232.2,573.1,230.2,572.9,228.3z"/>
					<path class="st51" d="M572.9,233.7c0-0.9,0.4-2.5,0.5-4.1c0.1-1.4,0.1-4.8,0.3-5.6c-1.4-0.1-4.7,6.8-7.2,9.4
						C569.4,232.7,570.4,232.9,572.9,233.7z"/>
					<path class="st51" d="M591.7,228.5c-2,5.3-12.4,5.9-18.9,5.2c0.9,2.3,2,5.1,1.3,6.9c4.6,0.3,12.4,0.8,17.2-3.6
						C594.6,234,593.6,230.6,591.7,228.5z"/>
					<path class="st38" d="M573.1,225.1c2.1-0.4,8.9-1,10.7-1.6c3.5-1.2,2.8-4.2,6.7-8.5c3.9-1,5.6-2.3,6.7-4.1
						c2.5-4.4,1.9-10.4-0.6-14.6c-2.1-3.6-5.4-5.7-9.8-6.4c-8.5-1.4-13.4,1.4-16.5,7.9c-0.3,0.6-1,2.9-1,3.6c-0.1,1.5,0.2,1.9,0,2.9
						c-0.1,0.7-0.3,1.2-1.1,2c-0.9,0.9-1.7,3.5-2.1,6.6c-0.5,3.6-0.1,7.6,0.3,9C567.1,224,569.8,225.3,573.1,225.1z"/>
					<linearGradient id="SVGID_30_" gradientUnits="userSpaceOnUse" x1="589.4203" y1="198.2032" x2="592.5986" y2="209.491">
						<stop  offset="0" style="stop-color:#38251B"/>
						<stop  offset="1" style="stop-color:#1C120D"/>
					</linearGradient>
					<path class="st52" d="M577.4,199.3c2.2-0.4,10.6-1.9,14.3-2.7c3.8-0.8,7.9-1.7,9.9,1.1c1.4,3.6,0.5,9-0.9,11.7
						c-2,3.9-5.8,6.7-10.6,9.4c-1.8,1,0.1-4.8,0.1-6.2c-1.4,1.9-2.4,2.5-3.1,2.5c-0.5,0-1.1,0.1-0.3-2.6c1.2-4.1-0.5-5.3,1.2-7.7
						c1.4-1.9-0.1-2.1-0.3-3.1C584.6,201,581.3,201.7,577.4,199.3z"/>
					<path class="st38" d="M592.4,210.8c3.5-0.2,2.4,3.5,1.3,5.6c-0.8,1.4-2,0.9-2.8,2c-1,1.3-2.3,1.6-3.2,1.3
						c-1.9-0.6,0.1-3.1,0.7-4.2C588.7,213.5,590.2,210.9,592.4,210.8z"/>
					<linearGradient id="SVGID_31_" gradientUnits="userSpaceOnUse" x1="583.3363" y1="191.9648" x2="593.1707" y2="198.3995">
						<stop  offset="0" style="stop-color:#4D3529"/>
						<stop  offset="1" style="stop-color:#38251B"/>
					</linearGradient>
					<path class="st53" d="M601.7,198c-2.6-0.1-6.3,1.6-10.3,2.4c-5.5,1.1-11.5,1.4-15.3-1c-2.2-1.3-4.1-3.8-4.1-4.9
						C571.4,177.3,602,183.5,601.7,198z"/>
					<path class="st54" d="M571.7,207.5c-1.8,2.8-4.3,3-4.8,3.6c-0.5,0.6,0,2.1,1.4,3c-1.2-1.1-1.4-2.3-1.2-2.6
						C568,210.6,570,211,571.7,207.5z"/>
					<g>
						<path class="st54" d="M580.3,211.6c-1.1-1.5-2.2-2.4-4.5-2.8C578.3,208.7,579.6,209.9,580.3,211.6z"/>
						<path class="st54" d="M577.7,211.1c-0.7-0.2-0.6-1.1-0.2-1.5c0.2-0.2,0.4-0.3,0.8-0.2c0.2,0.1,0.7,0.4,0.6,0.9
							C578.8,210.9,578.2,211.3,577.7,211.1z"/>
					</g>
					<g>
						<path class="st54" d="M571.4,205.9c-0.5-1.6-1.4-1.9-2.3-2.1c0.7,0.3,1.4,0.5,2.2,2.3L571.4,205.9z"/>
						<path class="st54" d="M569.7,206c-0.7-0.2-0.6-1.1-0.2-1.5c0.2-0.2,0.4-0.3,0.8-0.2c0.2,0.1,0.7,0.4,0.6,0.9
							C570.8,205.8,570.2,206.2,569.7,206z"/>
					</g>
					<g>
						<path class="st55" d="M566.9,216c0.4,0.1,0.4,0.4,0.7,0.6c0.6,0.3,0.8,0.4,1.2,0.8c0.7,0.7,2.1,2,4.4,2.2
							c-2.2,0.1-5.4,0.9-6.7-1.2c-0.4-0.6,0-1.3-0.2-1.7C566.3,216.4,566.2,215.8,566.9,216z"/>
						<path class="st54" d="M566.7,216.8c1.3,1.3,2.6,2.3,4.8,2.7c-1.6-0.1-3.7-0.6-4.9-1.9L566.7,216.8L566.7,216.8z"/>
					</g>
				</g>
				<g>
					<linearGradient id="SVGID_32_" gradientUnits="userSpaceOnUse" x1="596.6901" y1="319.9507" x2="596.0292" y2="318.4638">
						<stop  offset="0" style="stop-color:#E8A476"/>
						<stop  offset="1" style="stop-color:#F1B287"/>
					</linearGradient>
					<path class="st56" d="M605.4,310.4c-1.7,0.6-4.6,1-5.9,1.4c-0.6,0.2-5.3,2-7.9,3.1c-2.8,1.2-4,3.4-6,5.8
						c-1.5,2-2.3,3.5-2.6,4.5c-0.4,1.1,2.1,3.8,3.3,3.8c2.9-0.1,6.4-2.9,7.2-3.1c6.8-2,9.9-1.7,12.6-3.8c1.2-0.9,2.4-4,4.9-6.5
						l-3.1-4.2L605.4,310.4z"/>
					<linearGradient id="SVGID_33_" gradientUnits="userSpaceOnUse" x1="623.547" y1="289.9719" x2="602.9918" y2="276.2148">
						<stop  offset="0" style="stop-color:#BED2E8"/>
						<stop  offset="1" style="stop-color:#CEE0F3"/>
					</linearGradient>
					<path class="st57" d="M611.2,246.3c8.5,8.3,17.1,22.8,25.4,33.6c3,3.8,1.4,7-1,10.5c-4.8,7-10.3,14.7-20.5,23.4
						c-0.8,0.7-1.6,0.7-2.8,1c-0.6,0.5-1.5,1.5-2.2,2c0.8-1.1-3.7-6.6-6-6.2c0.6-0.7,0.7-1,1.4-1.9c0.1-1,0.1-1.7,0.5-2.6
						c2.4-5.5,8.7-14.5,13.9-20.3c-6.8-5.5-13-11.8-18.3-18c-1.4-1.6-2.1-2.4-3.5-4.1c-5.8-7.1-4.1-17.1,1-20.5
						C602.1,241.3,606,241.2,611.2,246.3z"/>
				</g>
			</g>
		</g>
		<g>
			<path class="st1" d="M427.6,570.1l60.7-34.6c6.6-3,16.1-5.4,22.8-1.9c6.1,3.2,16.3,9.7,20.7,12.3c3.4,1.9,15.2,9,7.8,13
				c-21.6,11.8-43,25-65,36.9c-4.2,2.3-10.2,3.1-16.6,2.5c-6.3-0.5-12.9-2.4-18-5.4c-3.6-2.1-7.2-4.2-10.8-6.3
				c-4.8-2.8-7.3-6.1-7.5-9.1C421.6,574.7,423.5,572,427.6,570.1z"/>
			<g>
				<linearGradient id="SVGID_34_" gradientUnits="userSpaceOnUse" x1="494.3925" y1="474.7377" x2="481.3523" y2="485.9104">
					<stop  offset="0" style="stop-color:#CF8D61"/>
					<stop  offset="1" style="stop-color:#E8A476"/>
				</linearGradient>
				<path class="st58" d="M504.2,527.8c0.3,0.9,0.6,1.7,1,2.5c0.7,0.8,1.6,1.3,2.1,2.2c2.3,4.8,2.8,9.5,1.2,34.3l-5.8,0.1l-0.7-8.8
					c-0.7-3.6-2.7-8.8-3.5-12c-1.7-6.9-1.9-10.4-3-15.4l-0.1,0c-6.4-19.5-13-38.6-18.3-58.2l-18.2-52.7l-0.6-14.1
					c-0.1-2.3,1.1-4,1.8-5.8c9.4,2.8,14.6,5.7,24.7,5.4c3,4.5,7.2,12.9,7.3,19.2c0.3,12.4-0.7,20.6,3.1,41.3
					C506.5,503.5,500,502.9,504.2,527.8z"/>
				<g>
					<path class="st59" d="M514.8,549.3c0.6-0.1,1.8-0.1,2-0.3c0.3-0.3,0.9-2,0.5-2.3C516.5,546.3,515,548.9,514.8,549.3z"/>
					<path class="st60" d="M511.6,539.4c-0.7,2.2,0.3,4.4,1,6.7c2.4,8,3.9,8.5,2.8,12.1c-0.7,2.5-2,4.6-3.6,6.4
						c-1.6,1.8-2.1,3.1-4.1,4.5c-3.1,2.1-5.8,3.1-5.1-1.1c0.2-1.5,0.7-3.2,1-3.9c2.2-5,4.7-7.2,3.3-13.5c-1-4.7-2.6-7.7-0.5-10.9
						L511.6,539.4z"/>
					<path class="st61" d="M511.1,534.4c0.9,4.2,2.3,7.7,6.1,12.4c-0.5-0.1-1.7,1.1-2.4,2.5c-5-5.8-7.5-8.6-9-6.1
						c0.1,2.1,0.9,5.9,1.6,8.8c0.2,1,0.4,3.1-0.2,4.6c-2,4.7-5.6,11.7-4.2,13.9c-0.5-0.6-1-2.3-1-4.5c0-3.3,0.6-7.7,0.6-10.4
						c0.1-3.7-1.3-6.9-1.5-11.9c-0.1-1.4-0.1-2.8,0-4.2c0.2-3.6,0.6-8.3,3.1-9.6c0.9-0.5,3.2-0.1,4.4,0.5
						C510.3,531.2,510.8,532.8,511.1,534.4z"/>
				</g>
				<linearGradient id="SVGID_35_" gradientUnits="userSpaceOnUse" x1="453.5699" y1="469.2527" x2="470.1797" y2="505.5966">
					<stop  offset="0" style="stop-color:#E8A476"/>
					<stop  offset="1" style="stop-color:#F1B287"/>
				</linearGradient>
				<path class="st62" d="M469.8,540.7c0.4,3.7,3.9,7.3,4.3,9.8c1,5.9-3.3,2.8-8.1,10.4c-1.9,0-6.2,7-12,7.3
					c-1.3,0.1-3.7-3.1-1.1-5.4c1.2-0.7,2.2-0.2,3.2-1c1.9-1.7,4.1-14.6,3.9-19.6c-5.2-27.7-8.5-54.2-13.7-81.3
					c-2.6-13.6-3.1-22.1-2.2-32.1c0.3-5.7-0.3-8.6,1.6-14.1c0.7-2.2,1.7-4,2.7-5.8c8.9,2.8,15.6,5.5,25.7,5.1
					c2.3,4.5,4.3,10.5,3.5,16.8c-1.6,12.4-7.8,21.4-9.2,42.6c6.7,23.3-0.3,41.9,1.3,67.1C469.8,540.6,469.8,540.7,469.8,540.7z"/>
				<linearGradient id="SVGID_36_" gradientUnits="userSpaceOnUse" x1="482.0423" y1="370.8864" x2="461.0671" y2="490.7453">
					<stop  offset="0" style="stop-color:#31ADCC"/>
					<stop  offset="0.9951" style="stop-color:#198AA6"/>
				</linearGradient>
				<path class="st63" d="M450.8,486.1c-1.4-8.4-2.8-16.8-4.4-25.2c-2.6-13.6-3.1-22.1-2.2-32.1c0.3-5.7-0.3-8.6,1.6-14.1
					c0.3-0.8,1.9-3.9,1.8-4.4c2.8-6.2,3.2-24.6,3.2-24.7c-1.3-9.7-6.6-13.1-3.8-21.4c2.1-2.9,7.7-7.4,13.6-10.7
					c8.2-4.5,17.5-7.3,22.4-7.9c10.5-1.2,10.5,16.1,6.8,24.2c-7.3,16.2-7.8,24.5-4.1,36.8c2.9,4.7,6.4,12.2,6.5,18
					c0.3,12.4-0.7,20.6,3.1,41.3c1.7,5.9,3.1,10.8,4,15C491.7,494.7,466.6,493.5,450.8,486.1z"/>
				<g>
					<path class="st61" d="M472,546c-4.7,0.6-9,12-12.7,17c-1.8,2.4-5.5-0.1-4-0.7c-0.8,0.1-3.6-0.3-5.7,0.1
						c-2.9,0.5-1.9,3.4,0.1,4.8c4.4,3.1,8.4,4.8,12.4,2.8c0.7-0.3,1.6-1,2.5-1.6c0.6-0.5,1.3-1,1.6-1.3c1.3-1.6,1.8-4.1,3-6.2
						c0.4-0.7,0.7-0.9,1-0.7c0.5,0.7,0,11-0.3,13c0.1,0.6,2.1,1.1,2.5,0.6l3.7-18.2c0.4-1.5,0.3-3.2-0.5-4.7
						C474.6,548.5,472.5,546.9,472,546z"/>
					<path class="st60" d="M459.7,570.6c0.8-0.1,1.6-0.4,2.4-0.8c0.7-0.3,1.6-1,2.5-1.6c0.6-0.5,1.3-1,1.6-1.3
						c1.4-1.7,2.1-4.8,3.7-7c-0.5-0.3-1.9-0.3-3.3,2c-2.1,3.8-3.5,6.6-6.2,8.4C460.2,570.4,460,570.5,459.7,570.6z"/>
				</g>
				<linearGradient id="SVGID_37_" gradientUnits="userSpaceOnUse" x1="480.4633" y1="367.4196" x2="510.8517" y2="380.5773">
					<stop  offset="0" style="stop-color:#31ADCC"/>
					<stop  offset="0.9951" style="stop-color:#198AA6"/>
				</linearGradient>
				<path class="st64" d="M492.8,374.8l-17.8,4.1c-3.6,1.6-0.9,9.2,2.7,10.1l24.9-3.2c6.3-1.3,7.7-5.5,6.4-8.8
					c0-0.1-0.1-0.1-0.1-0.2c-0.4-2-13.1-20.3-14.9-22.7c-2.5-3.4-5.2-5.7-6.3-6.3c-2.2-1.3-5-1-6.9,0.2c-2.6,1.6-3.4,4.2-2.4,6.6
					C480,358.8,487,367.4,492.8,374.8z"/>
				<g>
					<path class="st50" d="M415.2,367.4c-4.3-2.6-10-7.5-14-8.1c-2.5-1.3-6.2-3.4-8.6-4.6c-1.7-0.9-2.5,2.1-1,3.1
						c1.5,1,5.4,3.4,5.4,3.4c0.1,0,0.1,0,0.2,0.1c-0.9,1.6-1.1,3.8-0.9,5.4c0.4,2.1,4.9,4.7,7.8,6.6c2.5,1.7,5.6,0.4,7.3,1.8
						C414.4,373.6,414.8,370.2,415.2,367.4z"/>
					<linearGradient id="SVGID_38_" gradientUnits="userSpaceOnUse" x1="443.1943" y1="360.7524" x2="411.6331" y2="419.4">
						<stop  offset="0" style="stop-color:#31ADCC"/>
						<stop  offset="0.9951" style="stop-color:#198AA6"/>
					</linearGradient>
					<path class="st65" d="M435,379.3c-4.7-3.8-10.7-7.1-15.5-10.1c-0.8-0.5-1.9-0.5-2.5-0.8c-0.7-0.5-1.4-0.8-1.8-1
						c-1.7,0.9-3.8,4.4-4.8,7.2c0.6,0.6,1.3,1.1,1.9,1.7c0.5,0.5,1,2.1,1.5,2.6c5.3,5.3,9,10,14.2,13.7c0.7,0.5,3.9,3.2,5.8,4.2
						c2.4,1.2,5.7,0,7.3-2.4c1.4-1.2,2.6-2.6,3.4-3.3c3.5-3.3,12.3-10.8,17.1-17.3c3.5-4.7,2.9-7.3,1.6-9.8
						c-3.2-5.7-8.1-9.4-13.5-4.2c-2.6,2.5-4.3,6.6-6.5,9.5C440.7,372.3,437.6,375.9,435,379.3z"/>
				</g>
				<linearGradient id="SVGID_39_" gradientUnits="userSpaceOnUse" x1="484.4912" y1="369.5117" x2="466.4745" y2="489.7857">
					<stop  offset="0" style="stop-color:#31ADCC"/>
					<stop  offset="0.9951" style="stop-color:#198AA6"/>
				</linearGradient>
				<path class="st66" d="M482.9,345.5c15.1-1.7,7,23.4,4.6,29.4c-5.1,12.9-5.1,20.6-1.9,31.5c2.9,4.7,6.4,12.2,6.5,18
					c0.3,12.4-0.7,20.6,3.1,41.3c1.7,5.9,3.1,10.8,4,15c-3.5,6.4-10.7,9.6-19,10.5c-34.2-37.6,14.1-51-4.3-85.5
					c-2.1-3.9-14.9-8.9-18.1-13.8c-6.9-8.1-9.6-16,0.8-28.9c1.7-2.1,3-3.2,5.3-6.5c3.8,0.9,10.8-0.4,11.6-1.9c0.3-0.5-1.2-5.3-1-5.8
					C481.2,346.1,479.1,346,482.9,345.5z"/>
				<g>
					<g>
						<path class="st50" d="M479.5,350.3c0.8,3.4-11.7,7.1-16,5.3l-0.1-0.8c-1.1-5.1-2.2-9.5-3-13.1c-2,0.9-6.9,1.1-7.3,0.4
							c13.2-10.6,28.7-18.4,30.7-13c-1.3,3.9-4.7,6.6-6.4,9.1c-0.4,0.7-0.8,2.1-0.9,3.5l0,0C477,344.4,478,347,479.5,350.3z"/>
						<path class="st38" d="M453.2,342.1c1.1,0.7,9.2-1.9,9.9-1.9c6.3,0.3,13.1-0.2,14.3-2.1c1.7-2.5,5.1-5.3,6.4-9.1
							c2.1-6.2,1.7-13.1-4-18c-9.8-8.4-25.2-2.3-27.4,7.3c-0.9,3.9,0.2,4.2,0,6.9c-0.3,4.8-0.9,3-0.4,10.7
							C452.2,338.8,452.4,341.7,453.2,342.1z"/>
						<path class="st67" d="M477.7,345.7c-0.3,3.1-9.1,5.3-14.5,4.1c-0.6-0.1-0.9-0.2-1.1-0.6c-0.8,0.4-2.9,3.5-3.2,5.1
							c4.6,4.4,19.2,1.8,21-3.4C480.3,349.6,480.7,347.3,477.7,345.7z"/>
					</g>
					<path class="st68" d="M502,335.3c8.4,7,13.1,19.7,9.3,26.8c-3.5,6.5-11.9,10.3-9.3,14.4c2.1,3.4,7.2,6.8,1.2,12.3
						c-3.1,2.8-10.7,10.4-26.1,6.5c-15-3.8-30.8-16.8-18.1-31c13.3-14.9,5.5-18.3-2.1-30c-4-6.2-7.7-18.5-4.2-23.1
						c5.9-7.8,9.9-2.2,15.6-5c10.9-5.3,19.8-1.5,25,6.8C497.8,320.5,495.4,329.8,502,335.3z"/>
				</g>
			</g>
		</g>
	</g>
</g>
</svg>
